<svg width="76" height="59" viewBox="0 0 76 59" fill="none" xmlns="http://www.w3.org/2000/svg">
<g clip-path="url(#clip0_2:12022)">
<path d="M16.87 0H7.18001C6.76196 0.0101149 6.35318 0.12535 5.99141 0.335073C5.62964 0.544796 5.32652 0.842253 5.11 1.2L0.310012 9.53C0.113043 9.89932 0.00999355 10.3114 0.00999355 10.73C0.00999355 11.1486 0.113043 11.5607 0.310012 11.93L5.11 20.26C5.31425 20.6307 5.61601 20.9385 5.98265 21.15C6.34928 21.3616 6.7668 21.4688 7.18999 21.46H16.8C17.2218 21.4613 17.6363 21.351 18.0017 21.1402C18.367 20.9294 18.67 20.6258 18.88 20.26L23.69 11.93C23.887 11.5607 23.99 11.1486 23.99 10.73C23.99 10.3114 23.887 9.89932 23.69 9.53L18.87 1.2C18.6692 0.843866 18.3792 0.546024 18.0286 0.335662C17.678 0.125299 17.2788 0.00963391 16.87 0Z" fill="#FF2129"/>
<path d="M51.33 15.16C51.2368 15.1646 51.1453 15.1875 51.061 15.2274C50.9766 15.2673 50.9009 15.3235 50.8382 15.3927C50.7116 15.5324 50.6457 15.7167 50.655 15.905C50.6643 16.0933 50.748 16.2702 50.8877 16.3968C51.0274 16.5234 51.2117 16.5893 51.4 16.58H53.32L48.11 21.71C47.9781 21.843 47.9041 22.0227 47.9041 22.21C47.9041 22.3973 47.9781 22.577 48.11 22.71C48.1752 22.7765 48.253 22.8293 48.3388 22.8654C48.4247 22.9015 48.5169 22.9201 48.61 22.9201C48.7031 22.9201 48.7953 22.9015 48.8812 22.8654C48.967 22.8293 49.0448 22.7765 49.11 22.71L54.23 17.63V19.41C54.23 19.5983 54.3048 19.7789 54.4379 19.912C54.5711 20.0452 54.7517 20.12 54.94 20.12C55.1283 20.12 55.3089 20.0452 55.442 19.912C55.5752 19.7789 55.65 19.5983 55.65 19.41V15.87C55.65 15.6817 55.5752 15.5011 55.442 15.3679C55.3089 15.2348 55.1283 15.16 54.94 15.16H51.29H51.33ZM25.81 18.44C25.6342 18.4599 25.4721 18.5447 25.3555 18.6779C25.239 18.8111 25.1764 18.983 25.18 19.16V40.78C25.18 40.9683 25.2548 41.1489 25.388 41.282C25.5211 41.4152 25.7017 41.49 25.89 41.49H55.78C55.8733 41.4913 55.9658 41.4742 56.0525 41.4398C56.1391 41.4053 56.2181 41.3541 56.285 41.2891C56.3518 41.2241 56.4053 41.1466 56.4422 41.0609C56.479 40.9753 56.4987 40.8832 56.5 40.79C56.5027 40.6964 56.4865 40.6032 56.4526 40.5159C56.4186 40.4287 56.3674 40.3492 56.3022 40.282C56.2369 40.2149 56.1588 40.1615 56.0726 40.1251C55.9863 40.0887 55.8936 40.0699 55.8 40.07H26.6V19.16C26.6027 19.0667 26.5869 18.9739 26.5537 18.8867C26.5205 18.7995 26.4703 18.7198 26.4063 18.652C26.3422 18.5842 26.2654 18.5297 26.1802 18.4916C26.0951 18.4535 26.0032 18.4326 25.91 18.43L25.81 18.44ZM31.92 21.74C31.745 21.762 31.5842 21.8475 31.4681 21.9802C31.352 22.1129 31.2886 22.2836 31.29 22.46V36.04C31.3107 36.215 31.395 36.3764 31.5268 36.4935C31.6586 36.6106 31.8287 36.6753 32.005 36.6753C32.1813 36.6753 32.3514 36.6106 32.4832 36.4935C32.615 36.3764 32.6992 36.215 32.72 36.04V22.46C32.7226 22.3659 32.7066 22.2722 32.6727 22.1844C32.6388 22.0966 32.5879 22.0164 32.5227 21.9485C32.4576 21.8806 32.3796 21.8263 32.2933 21.7888C32.207 21.7512 32.1141 21.7313 32.02 21.73L31.92 21.74ZM44.11 21.71C43.9332 21.7297 43.77 21.8142 43.6518 21.9472C43.5337 22.0801 43.4689 22.2521 43.47 22.43V36.04C43.4907 36.215 43.575 36.3764 43.7068 36.4935C43.8386 36.6106 44.0087 36.6753 44.185 36.6753C44.3613 36.6753 44.5314 36.6106 44.6632 36.4935C44.795 36.3764 44.8793 36.215 44.9 36.04V22.46C44.9013 22.3667 44.8843 22.2741 44.8498 22.1875C44.8153 22.1008 44.7641 22.0218 44.6991 21.955C44.6341 21.8881 44.5566 21.8347 44.471 21.7978C44.3853 21.7609 44.2932 21.7413 44.2 21.74L44.11 21.71ZM38.11 25.84C38.0168 25.8413 37.9247 25.8609 37.839 25.8978C37.7534 25.9347 37.6759 25.9881 37.6109 26.055C37.5458 26.1218 37.4946 26.2008 37.4602 26.2875C37.4257 26.3741 37.4087 26.4667 37.41 26.56V36.01C37.41 36.1983 37.4848 36.3789 37.618 36.512C37.7511 36.6452 37.9317 36.72 38.12 36.72C38.3083 36.72 38.4889 36.6452 38.6221 36.512C38.7552 36.3789 38.83 36.1983 38.83 36.01V26.59C38.8327 26.4964 38.8166 26.4032 38.7826 26.3159C38.7486 26.2287 38.6975 26.1492 38.6322 26.082C38.5669 26.0149 38.4888 25.9615 38.4026 25.9251C38.3163 25.8887 38.2236 25.8699 38.13 25.87L38.11 25.84ZM50.33 25.84C50.2368 25.8413 50.1447 25.8609 50.059 25.8978C49.9734 25.9347 49.8959 25.9881 49.8309 26.055C49.7659 26.1218 49.7147 26.2008 49.6802 26.2875C49.6457 26.3741 49.6287 26.4667 49.63 26.56V36.01C49.63 36.1983 49.7048 36.3789 49.838 36.512C49.9711 36.6452 50.1517 36.72 50.34 36.72C50.5283 36.72 50.7089 36.6452 50.8421 36.512C50.9752 36.3789 51.05 36.1983 51.05 36.01V26.59C51.0527 26.4964 51.0366 26.4032 51.0026 26.3159C50.9686 26.2287 50.9175 26.1492 50.8522 26.082C50.7869 26.0149 50.7088 25.9615 50.6226 25.9251C50.5363 25.8887 50.4436 25.8699 50.35 25.87L50.33 25.84Z" fill="white" stroke="white" stroke-width="1.7" stroke-miterlimit="10"/>
<path d="M15.02 6.70997C13.555 6.71524 12.1515 7.29956 11.1155 8.33549C10.0796 9.37143 9.49528 10.7749 9.49001 12.24V47.76H6.33C5.91961 47.7814 5.53154 47.9534 5.24004 48.2431C4.94853 48.5327 4.77406 48.9197 4.75002 49.33V52.49C4.75795 54.1706 5.43182 55.7796 6.62398 56.9642C7.81614 58.1489 9.42933 58.8126 11.11 58.81H69.54C71.2128 58.8021 72.8147 58.1334 73.9966 56.9495C75.1786 55.7657 75.8447 54.1628 75.85 52.49V49.33C75.8326 48.9174 75.6603 48.5266 75.3674 48.2356C75.0745 47.9446 74.6826 47.7747 74.27 47.76H71.11V12.23C71.1021 10.7615 70.5125 9.35601 69.4703 8.32138C68.4282 7.28674 67.0185 6.7073 65.55 6.70997H15.02ZM15.02 9.86997H65.55C65.8627 9.86455 66.1733 9.92216 66.4633 10.0393C66.7533 10.1565 67.0167 10.3309 67.2379 10.5521C67.4591 10.7732 67.6334 11.0367 67.7506 11.3266C67.8678 11.6166 67.9254 11.9272 67.92 12.24V47.76H12.65V12.23C12.6446 11.9172 12.7022 11.6066 12.8194 11.3166C12.9366 11.0267 13.1109 10.7632 13.3321 10.5421C13.5533 10.3209 13.8167 10.1465 14.1067 10.0293C14.3967 9.91216 14.7073 9.85455 15.02 9.85997V9.86997ZM7.90999 50.91H72.65V52.49C72.6567 52.906 72.5799 53.3191 72.4241 53.7048C72.2683 54.0906 72.0367 54.4412 71.743 54.7358C71.4493 55.0305 71.0994 55.2632 70.7142 55.4202C70.3289 55.5773 69.916 55.6554 69.5 55.65H11.11C10.6935 55.6553 10.2802 55.5773 9.89439 55.4204C9.50858 55.2635 9.15808 55.0309 8.86357 54.7364C8.56906 54.4419 8.33648 54.0914 8.17958 53.7056C8.02268 53.3198 7.94462 52.9064 7.95 52.49L7.90999 50.91Z" fill="white"/>
</g>
<defs>
<clipPath id="clip0_2:12022">
<rect width="75.82" height="58.81" fill="white"/>
</clipPath>
</defs>
</svg>
