<svg width="83" height="59" viewBox="0 0 83 59" fill="none" xmlns="http://www.w3.org/2000/svg">
<g clip-path="url(#clip0_2:12016)">
<path d="M16.88 0H7.19C6.77025 0.00844632 6.35944 0.122892 5.99578 0.332695C5.63213 0.542498 5.32742 0.840842 5.11 1.2L0.3 9.53C0.103031 9.89932 0 10.3114 0 10.73C0 11.1486 0.103031 11.5607 0.3 11.93L5.11 20.28C5.31425 20.6507 5.61603 20.9585 5.98267 21.17C6.3493 21.3816 6.76682 21.4887 7.19 21.48H16.8C17.2218 21.4813 17.6363 21.3709 18.0017 21.1602C18.367 20.9494 18.67 20.6458 18.88 20.28L23.68 11.95C23.877 11.5807 23.98 11.1686 23.98 10.75C23.98 10.3314 23.877 9.91931 23.68 9.55L18.88 1.22C18.6817 0.860138 18.3928 0.558282 18.0421 0.344307C17.6913 0.130332 17.2907 0.0116514 16.88 0Z" fill="#FF2129"/>
<path d="M50.45 21.62H13.61C13.1857 21.62 12.7787 21.4514 12.4786 21.1514C12.1786 20.8513 12.01 20.4443 12.01 20.02C12.01 19.5956 12.1786 19.1887 12.4786 18.8886C12.7787 18.5886 13.1857 18.42 13.61 18.42H50.45C50.8743 18.42 51.2813 18.5886 51.5814 18.8886C51.8814 19.1887 52.05 19.5956 52.05 20.02C52.05 20.4443 51.8814 20.8513 51.5814 21.1514C51.2813 21.4514 50.8743 21.62 50.45 21.62Z" fill="white" stroke="white" stroke-width="0.8"/>
<path d="M50.45 10.41H13.61C13.1857 10.41 12.7787 10.2414 12.4786 9.94139C12.1786 9.64133 12.01 9.23437 12.01 8.81002C12.01 8.38567 12.1786 7.97871 12.4786 7.67865C12.7787 7.37859 13.1857 7.21002 13.61 7.21002H50.45C50.8743 7.21002 51.2813 7.37859 51.5814 7.67865C51.8814 7.97871 52.05 8.38567 52.05 8.81002C52.05 9.23437 51.8814 9.64133 51.5814 9.94139C51.2813 10.2414 50.8743 10.41 50.45 10.41Z" fill="white" stroke="white" stroke-width="0.8"/>
<path d="M35.19 32.83H13.61C13.1857 32.83 12.7787 32.6614 12.4786 32.3614C12.1786 32.0613 12.01 31.6543 12.01 31.23C12.01 30.8056 12.1786 30.3987 12.4786 30.0986C12.7787 29.7986 13.1857 29.63 13.61 29.63H35.19C35.4001 29.63 35.6082 29.6714 35.8023 29.7518C35.9964 29.8322 36.1728 29.9501 36.3214 30.0986C36.4699 30.2472 36.5878 30.4236 36.6682 30.6177C36.7486 30.8118 36.79 31.0199 36.79 31.23C36.79 31.4401 36.7486 31.6482 36.6682 31.8423C36.5878 32.0364 36.4699 32.2128 36.3214 32.3614C36.1728 32.5099 35.9964 32.6278 35.8023 32.7082C35.6082 32.7886 35.4001 32.83 35.19 32.83Z" fill="white" stroke="white" stroke-width="0.8"/>
<path d="M81.92 1.18001C81.7433 1.02778 81.5351 0.916546 81.3103 0.854304C81.0856 0.792061 80.8498 0.78035 80.62 0.820009L61.4 4.02001C61.0264 4.08355 60.6872 4.27684 60.4421 4.56585C60.197 4.85486 60.0617 5.22106 60.06 5.60001V39.68C58.7218 38.7204 57.1575 38.1243 55.52 37.95C52.507 37.7 49.4896 38.3761 46.8714 39.888C44.2533 41.3999 42.1594 43.6754 40.87 46.41C40.2373 47.6337 39.9218 48.9965 39.9525 50.3738C39.9832 51.751 40.3591 53.0985 41.0458 54.2927C41.7325 55.4869 42.7079 56.4896 43.8827 57.209C45.0576 57.9284 46.3942 58.3413 47.77 58.41C48.2477 58.4699 48.7286 58.4999 49.21 58.5C51.7465 58.4723 54.2317 57.7829 56.42 56.5C59.072 55.0276 61.1768 52.7369 62.42 49.97C62.9604 48.7506 63.2463 47.4337 63.26 46.1V16.57L81.15 13.57C81.5226 13.5062 81.8606 13.3125 82.1041 13.0233C82.3475 12.7341 82.4807 12.3681 82.48 11.99V2.38001C82.482 2.14801 82.4328 1.91844 82.336 1.70758C82.2392 1.49673 82.0972 1.30977 81.92 1.16001V1.18001ZM59.48 48.65C58.4638 50.7473 56.8418 52.4917 54.8238 53.6575C52.8058 54.8234 50.4846 55.3572 48.16 55.19C47.2847 55.1776 46.4276 54.9384 45.6724 54.4957C44.9172 54.053 44.2898 53.4219 43.8515 52.6642C43.4132 51.9064 43.1789 51.0479 43.1717 50.1726C43.1644 49.2972 43.3843 48.4349 43.81 47.67C44.793 45.5508 46.4251 43.7996 48.47 42.67C50.1667 41.6622 52.0968 41.1142 54.07 41.08C54.4275 41.0798 54.7848 41.0998 55.14 41.14C56.0144 41.1541 56.8703 41.3946 57.6241 41.838C58.3779 42.2814 59.004 42.9126 59.4411 43.6701C59.8783 44.4276 60.1116 45.2854 60.1184 46.1599C60.1253 47.0345 59.9053 47.8958 59.48 48.66V48.65ZM79.28 10.65L63.28 13.32V6.96001L79.28 4.29001V10.65Z" fill="white" stroke="white" stroke-width="0.8"/>
</g>
<defs>
<clipPath id="clip0_2:12016">
<rect width="82.88" height="58.86" fill="white"/>
</clipPath>
</defs>
</svg>
