<svg width="17" height="17" viewBox="0 0 17 17" fill="none" xmlns="http://www.w3.org/2000/svg">
<path fill-rule="evenodd" clip-rule="evenodd" d="M8.69413 0.615845C4.23472 0.615845 0.615479 4.23508 0.615479 8.6945C0.615479 13.1539 4.23472 16.7732 8.69413 16.7732C13.1536 16.7732 16.7728 13.1539 16.7728 8.6945C16.7728 4.23508 13.1536 0.615845 8.69413 0.615845ZM6.50482 12.1602L3.60458 9.26C3.28951 8.94494 3.28951 8.43598 3.60458 8.12091C3.91965 7.80585 4.4286 7.80585 4.74367 8.12091L7.0784 10.4476L12.6365 4.88945C12.9516 4.57438 13.4605 4.57438 13.7756 4.88945C14.0907 5.20452 14.0907 5.71348 13.7756 6.02854L7.64391 12.1602C7.33692 12.4753 6.81988 12.4753 6.50482 12.1602Z" fill="#C4C4C4"/>
</svg>
