<svg width="28" height="22" viewBox="0 0 28 22" fill="none" xmlns="http://www.w3.org/2000/svg">
<path d="M2.59113 3.51625H26.069C27.0417 3.51625 27.8272 2.73083 27.8272 1.75812C27.8272 0.785417 27.0417 0 26.069 0H2.59113C1.61842 0 0.833008 0.785417 0.833008 1.75812C0.833008 2.73083 1.61842 3.51625 2.59113 3.51625Z" fill="white"/>
<path d="M2.59113 12.319H26.069C27.0417 12.319 27.8272 11.5336 27.8272 10.5609C27.8272 9.58815 27.0417 8.80273 26.069 8.80273H2.59113C1.61842 8.80273 0.833008 9.58815 0.833008 10.5609C0.833008 11.5336 1.61842 12.319 2.59113 12.319Z" fill="white"/>
<path d="M2.59113 21.1277H26.069C27.0417 21.1277 27.8272 20.3423 27.8272 19.3696C27.8272 18.3969 27.0417 17.6115 26.069 17.6115H2.59113C1.61842 17.6115 0.833008 18.3969 0.833008 19.3696C0.833008 20.3423 1.61842 21.1277 2.59113 21.1277Z" fill="white"/>
</svg>
