<svg width="69" height="69" viewBox="0 0 69 69" fill="none" xmlns="http://www.w3.org/2000/svg">
<g clip-path="url(#clip0)">
<circle cx="34.5" cy="34.5" r="34.125" fill="#FF2129"/>
<path d="M47.5352 44.3486V49.8541H25.4715V45.4748L36.7328 34.8391C37.9284 33.6991 38.7348 32.7259 39.1518 31.9195C39.5689 31.0854 39.7775 30.2651 39.7775 29.4588C39.7775 28.2909 39.3743 27.4011 38.5679 26.7894C37.7894 26.1499 36.6354 25.8301 35.1061 25.8301C33.8271 25.8301 32.6731 26.0804 31.6443 26.5809C30.6155 27.0536 29.7536 27.7765 29.0584 28.7497L24.1368 25.5799C25.2769 23.8837 26.8479 22.563 28.8499 21.6176C30.8519 20.6444 33.1458 20.1578 35.7318 20.1578C37.9006 20.1578 39.7914 20.5193 41.4041 21.2422C43.0446 21.9373 44.3098 22.9383 45.1996 24.2452C46.1171 25.5243 46.5759 27.0397 46.5759 28.7914C46.5759 30.3763 46.2423 31.8639 45.5749 33.2542C44.9076 34.6445 43.6146 36.2294 41.6961 38.009L34.981 44.3486H47.5352Z" fill="white"/>
</g>
<defs>
<clipPath id="clip0">
<rect width="68.25" height="68.25" fill="white" transform="translate(0.375 0.375)"/>
</clipPath>
</defs>
</svg>
