<svg width="69" height="69" viewBox="0 0 69 69" fill="none" xmlns="http://www.w3.org/2000/svg">
<g clip-path="url(#clip0)">
<circle cx="34.5" cy="34.5" r="34.125" fill="#FF2129"/>
<path d="M39.4575 32.6286L37.9977 32.42L45.8806 25.0794V20.6583H25.4435L25.4852 26.5392H36.7464L29.9063 33.0874V37.1748H34.8279C38.0811 37.1748 39.8746 38.3843 39.8746 40.72C39.8746 43.014 38.0811 44.3486 34.8696 44.3486C32.0751 44.3486 29.3224 43.0974 27.0284 40.72L23.942 46.6009C26.7782 48.7697 31.1992 50.1878 35.4535 50.1878C42.7107 50.1878 47.3404 46.2672 47.3404 40.6366C47.3404 36.1738 44.0871 33.3376 39.4575 32.6286Z" fill="white"/>
</g>
<defs>
<clipPath id="clip0">
<rect width="68.25" height="68.25" fill="white" transform="translate(0.375 0.375)"/>
</clipPath>
</defs>
</svg>
