<svg width="96" height="65" viewBox="0 0 96 65" fill="none" xmlns="http://www.w3.org/2000/svg">
<path d="M20.975 0H8.975C7.875 0 6.875 0.6 6.375 1.5L0.375 11.9C-0.125 12.8 -0.125 14 0.375 14.9L6.375 25.3C6.875 26.2 7.875 26.8 8.975 26.8H20.975C22.075 26.8 23.075 26.2 23.575 25.3L29.575 14.9C30.075 14 30.075 12.8 29.575 11.9L23.575 1.5C23.075 0.6 22.075 0 20.975 0Z" fill="#989595"/>
<path d="M89.1998 12.5C65.6998 12.5 42.1998 12.5 18.6998 12.5C18.1998 12.5 17.7998 12.9 17.7998 13.4C17.7998 25.3 17.7998 37.1 17.7998 49C17.7998 49.5 18.1998 49.9 18.6998 49.9C25.8998 49.9 33.0998 49.9 40.2998 49.9C40.3998 49.9 40.4998 49.9 40.5998 49.9C49.3998 49.9 58.2998 49.9 67.0998 49.9C67.1998 49.9 67.2998 49.9 67.2998 49.9C74.5998 49.9 81.7998 49.9 89.0998 49.9C89.2998 49.9 89.4998 49.8 89.6998 49.7C89.6998 49.7 89.6998 49.7 89.7998 49.7C89.7998 49.7 89.7998 49.7 89.8998 49.6C89.9998 49.5 90.0998 49.3 90.0998 49C90.0998 37.1 90.0998 25.3 90.0998 13.4C90.0998 12.9 89.6998 12.5 89.1998 12.5ZM88.2998 14.3C88.2998 14.9 88.2998 15.5 88.2998 16C88.2998 20.1 88.2998 24.1 88.2998 28.2C88.2998 34.8 88.2998 41.4 88.2998 48C81.8998 48 75.4998 48 69.0998 48C71.9998 44.1 73.2998 39.5 72.8998 34.6C72.7998 33.5 70.9998 33.5 71.0998 34.6C71.4998 39.6 70.0998 44.2 66.7998 48C58.1998 48 49.4998 48 40.8998 48C37.5998 44.1 36.0998 39.3 36.6998 34.1C40.1998 31.5 42.5998 27.5 42.9998 23C49.7998 18 58.1998 18 64.9998 23.1C65.8998 23.8 66.7998 22.2 65.8998 21.6C58.9998 16.5 50.0998 16.2 42.9998 20.9C42.8998 18.7 42.2998 16.5 41.0998 14.3C41.7998 14.3 42.3998 14.3 43.0998 14.3C58.1998 14.3 73.1998 14.3 88.2998 14.3ZM19.5998 47.3C19.5998 44.2 19.5998 41 19.5998 37.9C19.5998 37 19.5998 36 19.5998 35.1C24.8998 38.2 30.3998 37.8 34.7998 35.3C34.5998 39.9 35.8998 44.3 38.5998 48C32.1998 48 25.8998 48 19.4998 48C19.5998 47.9 19.5998 47.6 19.5998 47.3ZM39.0998 14.3C46.8998 27.2 32.1998 41.3 19.5998 33C19.5998 27.3 19.5998 21.7 19.5998 16C19.5998 15.4 19.5998 14.8 19.5998 14.3C20.8998 14.3 22.1998 14.3 23.5998 14.3C28.6998 14.3 33.8998 14.3 39.0998 14.3Z" fill="black"/>
<path d="M68.0004 53.1C51.6004 53.1 35.2004 53.1 18.8004 53.1C17.6004 53.1 17.6004 54.9 18.8004 54.9C35.2004 54.9 51.6004 54.9 68.0004 54.9C69.1004 54.8 69.1004 53.1 68.0004 53.1Z" fill="black"/>
<path d="M53.9004 56.5C42.2004 56.5 30.5004 56.5 18.8004 56.5C17.6004 56.5 17.6004 58.3 18.8004 58.3C30.5004 58.3 42.2004 58.3 53.9004 58.3C55.0004 58.3 55.0004 56.5 53.9004 56.5Z" fill="black"/>
<path d="M95.9 8.3C95.9 7.6 95.3 7 94.6 7C67.5 7 40.4 7 13.3 7C12.6 7 12 7.6 12 8.3C12 26.5 12 44.7 12 62.9C12 63.6 12.6 64.2 13.3 64.2C40.4 64.2 67.4 64.2 94.5 64.2C94.9 64.2 95.2 64.1 95.4 63.8C95.6 63.6 95.8 63.3 95.8 62.9C95.9 44.7 95.9 26.5 95.9 8.3ZM83.7 61.6C82.8 61.2 82.1 60.3 82 58.9C81.8 54.8 88.1 54.9 88.3 58.9C88.2 60.3 87.5 61.2 86.6 61.6C85.6 61.6 84.6 61.6 83.7 61.6ZM90.1 58.8C89.9 56 88 54 85.2 53.9C82.4 53.7 80.4 56.3 80.3 58.8C80.2 59.8 80.6 60.7 81.1 61.5C59 61.5 36.9 61.5 14.8 61.5C14.8 44.2 14.8 26.9 14.8 9.6C41 9.6 67.2 9.6 93.3 9.6C93.3 26.9 93.3 44.2 93.3 61.5C92 61.5 90.6 61.5 89.3 61.5C89.7 60.7 90 59.8 90.1 58.8Z" fill="black"/>
<path d="M67.6002 27.7C73.4002 27.7 79.3002 27.7 85.1002 27.7C86.3002 27.7 86.3002 25.9 85.1002 25.9C79.3002 25.9 73.4002 25.9 67.6002 25.9C66.4002 25.9 66.4002 27.7 67.6002 27.7Z" fill="black"/>
<path d="M85.1004 29.4C80.3004 29.4 75.6004 29.4 70.8004 29.4C69.6004 29.4 69.6004 31.2 70.8004 31.2C75.6004 31.2 80.3004 31.2 85.1004 31.2C86.3004 31.2 86.3004 29.4 85.1004 29.4Z" fill="black"/>
<path d="M85.0996 33.2C83.1996 33.2 81.3996 33.2 79.4996 33.2C78.2996 33.2 78.2996 35 79.4996 35C81.3996 35 83.1996 35 85.0996 35C86.2996 35 86.2996 33.2 85.0996 33.2Z" fill="black"/>
<path d="M85.0996 22.1C81.3996 22.1 77.6996 22.1 73.9996 22.1C72.7996 22.1 72.7996 23.9 73.9996 23.9C77.6996 23.9 81.3996 23.9 85.0996 23.9C86.2996 23.9 86.2996 22.1 85.0996 22.1Z" fill="black"/>
<path d="M72.1002 19.9C76.5002 19.9 80.8002 19.9 85.2002 19.9C86.4002 19.9 86.4002 18.1 85.2002 18.1C80.8002 18.1 76.5002 18.1 72.1002 18.1C70.9002 18.1 70.9002 19.9 72.1002 19.9Z" fill="black"/>
</svg>
