<svg width="23" height="23" viewBox="0 0 23 23" fill="none" xmlns="http://www.w3.org/2000/svg">
<path d="M19.5883 0H3.41167C2.50761 0.00252883 1.64131 0.362783 1.00205 1.00205C0.362783 1.64131 0.00252883 2.50761 0 3.41167L0 19.5883C0.00252883 20.4924 0.362783 21.3587 1.00205 21.998C1.64131 22.6372 2.50761 22.9975 3.41167 23H19.5883C20.4924 22.9975 21.3587 22.6372 21.998 21.998C22.6372 21.3587 22.9975 20.4924 23 19.5883V3.41167C22.9975 2.50761 22.6372 1.64131 21.998 1.00205C21.3587 0.362783 20.4924 0.00252883 19.5883 0V0ZM21.0833 19.5883C21.0833 19.9848 20.9258 20.3651 20.6455 20.6455C20.3651 20.9258 19.9848 21.0833 19.5883 21.0833H3.41167C3.01517 21.0833 2.63491 20.9258 2.35454 20.6455C2.07418 20.3651 1.91667 19.9848 1.91667 19.5883V3.41167C1.91667 3.01517 2.07418 2.63491 2.35454 2.35454C2.63491 2.07418 3.01517 1.91667 3.41167 1.91667H19.5883C19.9848 1.91667 20.3651 2.07418 20.6455 2.35454C20.9258 2.63491 21.0833 3.01517 21.0833 3.41167V19.5883Z" fill="white"/>
<path d="M11.5 5.75C10.3628 5.75 9.25106 6.08723 8.30547 6.71905C7.35989 7.35087 6.6229 8.24889 6.1877 9.29957C5.75249 10.3502 5.63862 11.5064 5.86049 12.6218C6.08235 13.7372 6.62999 14.7617 7.43414 15.5659C8.23829 16.37 9.26284 16.9177 10.3782 17.1395C11.4936 17.3614 12.6498 17.2475 13.7004 16.8123C14.7511 16.3771 15.6491 15.6401 16.281 14.6945C16.9128 13.7489 17.25 12.6372 17.25 11.5C17.25 9.975 16.6442 8.51247 15.5659 7.43414C14.4875 6.3558 13.025 5.75 11.5 5.75ZM11.5 15.3333C10.7418 15.3333 10.0007 15.1085 9.37032 14.6873C8.73993 14.2661 8.2486 13.6674 7.95846 12.967C7.66833 12.2665 7.59242 11.4957 7.74033 10.7522C7.88824 10.0086 8.25332 9.32552 8.78943 8.78942C9.32553 8.25332 10.0086 7.88823 10.7522 7.74032C11.4957 7.59241 12.2665 7.66833 12.967 7.95846C13.6674 8.2486 14.2661 8.73993 14.6873 9.37031C15.1085 10.0007 15.3333 10.7418 15.3333 11.5C15.3333 12.5167 14.9295 13.4917 14.2106 14.2106C13.4917 14.9295 12.5167 15.3333 11.5 15.3333Z" fill="white"/>
<path d="M17.7295 6.70825C18.5234 6.70825 19.167 6.06466 19.167 5.27075C19.167 4.47684 18.5234 3.83325 17.7295 3.83325C16.9356 3.83325 16.292 4.47684 16.292 5.27075C16.292 6.06466 16.9356 6.70825 17.7295 6.70825Z" fill="white"/>
</svg>
