<svg width="380" height="55" viewBox="0 0 380 55" fill="none" xmlns="http://www.w3.org/2000/svg">
<path fill-rule="evenodd" clip-rule="evenodd" d="M1.63449 31.9807C0.02418 29.2483 0.02418 25.8572 1.63449 23.1248L12.3012 5.02604C13.869 2.36592 16.7266 0.733154 19.8143 0.733154H41.4611C44.5488 0.733154 47.4063 2.36592 48.9741 5.02604L59.6408 23.1248C61.2511 25.8572 61.2511 29.2483 59.6408 31.9807L48.9741 50.0795C47.4063 52.7396 44.5488 54.3723 41.4611 54.3723H19.8143C16.7265 54.3723 13.869 52.7396 12.3012 50.0795L1.63449 31.9807Z" fill="#DB2529"/>
<path fill-rule="evenodd" clip-rule="evenodd" d="M21.8518 16.3304V13.2483L35.1729 12.0967C39.7949 11.7177 44.3365 15.1945 44.3365 20.3297V36.3346C44.3365 38.7664 41.2974 40.9996 37.5487 41.3225C33.7999 41.6453 30.7608 39.9358 30.7608 37.5039V33.1008L34.1548 32.8085C37.9035 32.4856 40.9426 29.3278 40.9426 24.8514V22.6498C40.9426 18.8338 37.9035 16.4142 34.1548 16.7371L25.2457 17.5059V37.9437C25.2457 40.3754 22.2067 42.6086 18.4579 42.9314C14.709 43.2542 11.67 41.5446 11.67 39.113C11.67 36.6811 14.709 34.448 18.4579 34.1251C20.3323 33.9637 21.8518 32.8472 21.8518 31.6313V17.7981V16.3304ZM32.059 28.5997C31.915 28.7009 31.7125 28.7426 31.5054 28.7207C31.4159 28.7112 31.3256 28.6899 31.2387 28.6564C30.9509 28.5456 30.7608 28.3242 30.7608 28.0996V21.5922C30.7608 21.3965 30.9055 21.2314 31.1396 21.1599C31.2533 21.1252 31.3794 21.1153 31.5055 21.1286C31.639 21.1426 31.7723 21.1827 31.8904 21.2473L36.6941 24.0465C36.8843 24.1502 37.0132 24.3049 37.0458 24.4683C37.0783 24.6318 37.0112 24.7869 36.8626 24.8915L32.059 28.5997Z" fill="url(#paint0_linear_17_1393)"/>
<path fill-rule="evenodd" clip-rule="evenodd" d="M21.8518 16.3304V13.2483L35.1729 12.0967C39.7949 11.7177 44.3365 15.1945 44.3365 20.3297V36.3346C44.3365 38.7664 41.2974 40.9996 37.5487 41.3225C33.7999 41.6453 30.7608 39.9358 30.7608 37.5039V33.1008L34.1548 32.8085C37.9035 32.4856 40.9426 29.3278 40.9426 24.8514V22.6498C40.9426 18.8338 37.9035 16.4142 34.1548 16.7371L25.2457 17.5059V37.9437C25.2457 40.3754 22.2067 42.6086 18.4579 42.9314C14.709 43.2542 11.67 41.5446 11.67 39.113C11.67 36.6811 14.709 34.448 18.4579 34.1251C20.3323 33.9637 21.8518 32.8472 21.8518 31.6313V17.7981V16.3304ZM32.059 28.5997C31.915 28.7009 31.7125 28.7426 31.5054 28.7207C31.4159 28.7112 31.3256 28.6899 31.2387 28.6564C30.9509 28.5456 30.7608 28.3242 30.7608 28.0996V21.5922C30.7608 21.3965 30.9055 21.2314 31.1396 21.1599C31.2533 21.1252 31.3794 21.1153 31.5055 21.1286C31.639 21.1426 31.7723 21.1827 31.8904 21.2473L36.6941 24.0465C36.8843 24.1502 37.0132 24.3049 37.0458 24.4683C37.0783 24.6318 37.0112 24.7869 36.8626 24.8915L32.059 28.5997Z" fill="white"/>
<path d="M101.406 17.5007C103.339 17.5007 105.018 17.8263 106.443 18.4774C107.867 19.1082 108.966 20.0239 109.739 21.2244C110.512 22.4047 110.899 23.7985 110.899 25.4061C110.899 27.0136 110.512 28.4074 109.739 29.5877C108.966 30.7679 107.867 31.6836 106.443 32.3347C105.018 32.9655 103.339 33.2809 101.406 33.2809H97.6826V38.8666H91.6392V17.5007H101.406ZM101.04 28.5194C102.281 28.5194 103.217 28.2548 103.848 27.7258C104.479 27.1764 104.794 26.4032 104.794 25.4061C104.794 24.4089 104.479 23.6357 103.848 23.0863C103.217 22.5369 102.281 22.2622 101.04 22.2622H97.6826V28.5194H101.04ZM113.846 17.5007H119.889V34.0745H130.084V38.8666H113.846V17.5007ZM147.029 34.7155H137.994L136.316 38.8666H130.15L139.582 17.5007H145.533L154.996 38.8666H148.708L147.029 34.7155ZM145.259 30.2592L142.512 23.4221L139.765 30.2592H145.259ZM166.813 31.2054V38.8666H160.77V31.1138L152.62 17.5007H158.999L164.066 25.986L169.133 17.5007H174.993L166.813 31.2054ZM176.441 17.5007H182.484V34.0745H192.679V38.8666H176.441V17.5007ZM195.071 17.5007H201.114V38.8666H195.071V17.5007ZM212.922 39.2939C211.192 39.2939 209.513 39.0802 207.886 38.6529C206.258 38.2256 204.935 37.6558 203.918 36.9436L205.902 32.4873C206.858 33.1182 207.968 33.6268 209.229 34.0135C210.49 34.4001 211.732 34.5934 212.953 34.5934C215.272 34.5934 216.432 34.0135 216.432 32.8536C216.432 32.2431 216.096 31.7954 215.425 31.5106C214.774 31.2054 213.716 30.89 212.251 30.5644C210.643 30.2185 209.3 29.8522 208.222 29.4656C207.144 29.0586 206.217 28.4177 205.444 27.5426C204.671 26.6676 204.284 25.4875 204.284 24.002C204.284 22.6997 204.641 21.5297 205.352 20.4919C206.064 19.4337 207.123 18.5995 208.527 17.989C209.952 17.3786 211.691 17.0734 213.746 17.0734C215.15 17.0734 216.534 17.2361 217.897 17.5617C219.261 17.867 220.461 18.3248 221.499 18.9352L219.637 23.4221C217.602 22.3233 215.629 21.7739 213.716 21.7739C212.516 21.7739 211.64 21.957 211.091 22.3233C210.541 22.6692 210.267 23.127 210.267 23.6968C210.267 24.2666 210.593 24.6939 211.243 24.9787C211.894 25.2636 212.943 25.5587 214.387 25.8639C216.015 26.2098 217.358 26.5863 218.416 26.9932C219.494 27.3799 220.421 28.0106 221.194 28.8856C221.987 29.7403 222.384 30.9103 222.384 32.3957C222.384 33.6777 222.028 34.8376 221.316 35.8753C220.604 36.9131 219.536 37.7474 218.111 38.3782C216.686 38.9886 214.957 39.2939 212.922 39.2939ZM229.426 22.2927H222.864V17.5007H242.001V22.2927H235.47V38.8666H229.426V22.2927ZM261.406 34.1966V38.8666H244.253V17.5007H261.01V22.1707H250.235V25.7723H259.728V30.2897H250.235V34.1966H261.406ZM274.1 33.1893H270.804V38.8666H264.761V17.5007H274.528C276.461 17.5007 278.139 17.8263 279.564 18.4774C280.988 19.1082 282.087 20.0239 282.86 21.2244C283.633 22.4047 284.02 23.7985 284.02 25.4061C284.02 26.9526 283.654 28.3057 282.922 29.4656C282.209 30.605 281.182 31.5005 279.839 32.1516L284.448 38.8666H277.977L274.1 33.1893ZM277.916 25.4061C277.916 24.4089 277.6 23.6357 276.97 23.0863C276.338 22.5369 275.402 22.2622 274.162 22.2622H270.804V28.5194H274.162C275.402 28.5194 276.338 28.2548 276.97 27.7258C277.6 27.1764 277.916 26.4032 277.916 25.4061Z" fill="black"/>
<path d="M289.521 39.1413C288.545 39.1413 287.721 38.8157 287.049 38.1646C286.378 37.5134 286.042 36.6893 286.042 35.6922C286.042 34.6748 286.368 33.8507 287.019 33.2199C287.69 32.589 288.524 32.2737 289.521 32.2737C290.538 32.2737 291.374 32.589 292.024 33.2199C292.675 33.8507 293.001 34.6748 293.001 35.6922C293.001 36.6893 292.665 37.5134 291.994 38.1646C291.343 38.8157 290.519 39.1413 289.521 39.1413Z" fill="#2EC4B6"/>
<path d="M306.62 39.1108C304.484 39.1108 302.55 38.6429 300.821 37.7068C299.112 36.7504 297.769 35.4481 296.792 33.7999C295.815 32.1313 295.327 30.2593 295.327 28.1837C295.327 26.1082 295.815 24.2463 296.792 22.5981C297.769 20.9295 299.122 19.6272 300.852 18.6912C302.58 17.7348 304.514 17.2566 306.651 17.2566C308.319 17.2566 309.845 17.5414 311.229 18.1112C312.613 18.6606 313.793 19.4847 314.77 20.5836L312.786 22.5065C311.178 20.8176 309.173 19.9731 306.773 19.9731C305.186 19.9731 303.751 20.3292 302.469 21.0414C301.187 21.7536 300.18 22.7405 299.447 24.0021C298.735 25.2434 298.379 26.6372 298.379 28.1837C298.379 29.7302 298.735 31.1343 299.447 32.3958C300.18 33.6371 301.187 34.6139 302.469 35.326C303.751 36.0382 305.186 36.3943 306.773 36.3943C309.154 36.3943 311.157 35.5397 312.786 33.8304L314.77 35.7533C313.793 36.8522 312.603 37.6864 311.199 38.2562C309.814 38.826 308.288 39.1108 306.62 39.1108ZM319.124 17.5008H322.176V36.2112H333.744V38.8666H319.124V17.5008ZM345.741 39.1108C342.892 39.1108 340.674 38.2969 339.087 36.669C337.499 35.0412 336.706 32.7011 336.706 29.6488V17.5008H339.758V29.5267C339.758 34.1051 341.763 36.3943 345.771 36.3943C347.725 36.3943 349.22 35.8348 350.258 34.7156C351.296 33.5761 351.815 31.8464 351.815 29.5267V17.5008H354.775V29.6488C354.775 32.7215 353.982 35.0717 352.395 36.6995C350.807 38.3071 348.589 39.1108 345.741 39.1108ZM375.409 27.7869C376.65 28.1328 377.627 28.7636 378.339 29.6793C379.052 30.5746 379.407 31.7142 379.407 33.0979C379.407 34.9496 378.705 36.3739 377.301 37.371C375.918 38.3681 373.893 38.8666 371.227 38.8666H361.032V17.5008H370.617C373.058 17.5008 374.941 17.9891 376.263 18.9659C377.606 19.9426 378.278 21.2957 378.278 23.0254C378.278 24.1446 378.014 25.1111 377.484 25.925C376.976 26.739 376.284 27.3596 375.409 27.7869ZM364.085 19.9731V26.8102H370.342C371.909 26.8102 373.11 26.5253 373.944 25.9556C374.798 25.3655 375.225 24.5109 375.225 23.3917C375.225 22.2724 374.798 21.4281 373.944 20.8583C373.11 20.2682 371.909 19.9731 370.342 19.9731H364.085ZM371.105 36.3943C372.835 36.3943 374.138 36.1095 375.012 35.5397C375.887 34.9699 376.324 34.0746 376.324 32.8537C376.324 30.4729 374.585 29.2825 371.105 29.2825H364.085V36.3943H371.105Z" fill="black"/>
<defs>
<linearGradient id="paint0_linear_17_1393" x1="11.7929" y1="12.0685" x2="11.7929" y2="42.7381" gradientUnits="userSpaceOnUse">
<stop stop-color="white"/>
<stop offset="1" stop-color="#FFBFE2" stop-opacity="0.8"/>
</linearGradient>
</defs>
</svg>
