<svg width="24" height="24" viewBox="0 0 24 24" fill="none" xmlns="http://www.w3.org/2000/svg">
<path fill-rule="evenodd" clip-rule="evenodd" d="M16.416 16.2455C16.2273 16.5561 15.8254 16.6474 15.5209 16.4647C13.067 14.9668 9.986 14.6258 6.35085 15.46C5.99769 15.5392 5.65062 15.32 5.57146 14.9729C5.4923 14.6198 5.71151 14.2727 6.05858 14.1935C10.0347 13.2863 13.4446 13.676 16.1968 15.3565C16.5073 15.5392 16.6048 15.9411 16.416 16.2455ZM17.4268 12.2816C14.2057 10.3026 9.49279 9.74853 5.69933 10.8994C5.26701 11.0333 5.02953 11.4839 5.1574 11.9162C5.28527 12.3485 5.74195 12.586 6.17427 12.4581C9.49279 11.4535 13.7734 11.9528 16.5743 13.676C16.9579 13.9134 17.4572 13.7916 17.6947 13.408C17.9261 13.0183 17.8104 12.519 17.4268 12.2816ZM18.7968 8.76211C14.9242 6.46655 8.79864 6.24734 5.10869 7.36772C4.59113 7.52604 4.29885 8.06796 4.45717 8.58553C4.61548 9.10309 5.1574 9.39537 5.67497 9.23705C8.88998 8.26281 14.4371 8.44548 17.8043 10.4427C18.2671 10.7167 18.8638 10.5645 19.1439 10.1017C19.4179 9.63893 19.2657 9.0422 18.7968 8.76211ZM23.1992 11.5996C23.1992 18.0053 18.0053 23.1992 11.5996 23.1992C5.19394 23.1992 0 18.0053 0 11.5996C0 5.19394 5.19394 0 11.5996 0C18.0113 0 23.1992 5.19394 23.1992 11.5996ZM20.8854 11.5996C20.8854 9.12136 19.9172 6.78926 18.1697 5.03562C16.416 3.28199 14.09 2.31992 11.6118 2.31992C9.13354 2.31992 6.80144 3.28807 5.0478 5.03562C3.29416 6.78926 2.3321 9.11527 2.3321 11.5996C2.3321 14.0778 3.30025 16.4099 5.0478 18.1575C6.80144 19.9111 9.12745 20.8732 11.6118 20.8732C14.09 20.8732 16.4221 19.905 18.1697 18.1575C19.9172 16.4099 20.8854 14.0778 20.8854 11.5996Z" fill="white"/>
<path d="M16.416 16.2455C16.2273 16.5561 15.8254 16.6474 15.5209 16.4647C13.067 14.9668 9.986 14.6258 6.35085 15.46C5.99769 15.5392 5.65062 15.32 5.57146 14.9729C5.4923 14.6198 5.71151 14.2727 6.05858 14.1935C10.0347 13.2863 13.4446 13.676 16.1968 15.3565C16.5073 15.5392 16.6048 15.9411 16.416 16.2455ZM17.4268 12.2816C14.2057 10.3026 9.49279 9.74853 5.69933 10.8994C5.26701 11.0333 5.02953 11.4839 5.1574 11.9162C5.28527 12.3485 5.74195 12.586 6.17427 12.4581C9.49279 11.4535 13.7734 11.9528 16.5743 13.676C16.9579 13.9134 17.4572 13.7916 17.6947 13.408C17.9261 13.0183 17.8104 12.519 17.4268 12.2816ZM18.7968 8.76211C14.9242 6.46655 8.79864 6.24734 5.10869 7.36772C4.59113 7.52604 4.29885 8.06796 4.45717 8.58553C4.61548 9.10309 5.1574 9.39537 5.67497 9.23705C8.88998 8.26281 14.4371 8.44548 17.8043 10.4427C18.2671 10.7167 18.8638 10.5645 19.1439 10.1017C19.4179 9.63893 19.2657 9.0422 18.7968 8.76211ZM23.1992 11.5996C23.1992 18.0053 18.0053 23.1992 11.5996 23.1992C5.19394 23.1992 0 18.0053 0 11.5996C0 5.19394 5.19394 0 11.5996 0C18.0113 0 23.1992 5.19394 23.1992 11.5996ZM20.8854 11.5996C20.8854 9.12136 19.9172 6.78926 18.1697 5.03562C16.416 3.28199 14.09 2.31992 11.6118 2.31992C9.13354 2.31992 6.80144 3.28807 5.0478 5.03562C3.29416 6.78926 2.3321 9.11527 2.3321 11.5996C2.3321 14.0778 3.30025 16.4099 5.0478 18.1575C6.80144 19.9111 9.12745 20.8732 11.6118 20.8732C14.09 20.8732 16.4221 19.905 18.1697 18.1575C19.9172 16.4099 20.8854 14.0778 20.8854 11.5996Z" fill="white"/>
</svg>
