<svg width="23" height="19" viewBox="0 0 23 19" fill="none" xmlns="http://www.w3.org/2000/svg">
<path d="M20.6234 4.6C20.6234 4.83 20.6234 4.98318 20.6234 5.21318C20.6234 11.4232 15.87 18.6299 7.20669 18.6299C4.52335 18.6299 2.07 17.8633 0 16.4833C0.383333 16.56 0.766667 16.5604 1.15 16.5604C3.37333 16.5604 5.36665 15.7933 6.97665 14.5667C4.90665 14.49 3.14335 13.1868 2.60669 11.2701C2.91335 11.3468 3.21998 11.3465 3.52665 11.3465C3.98665 11.3465 4.36996 11.2704 4.7533 11.1938C2.60663 10.7338 0.996704 8.89378 0.996704 6.59378V6.51667C1.61004 6.9 2.37665 7.05318 3.14331 7.12985C1.83998 6.28652 1.07335 4.83015 1.07335 3.22015C1.07335 2.37682 1.3033 1.53378 1.68663 0.843783C3.98663 3.68045 7.51335 5.59667 11.4234 5.75C11.3467 5.36667 11.27 5.06045 11.27 4.67712C11.27 2.07045 13.34 0 15.9467 0C17.3267 0 18.5534 0.536966 19.3967 1.45697C20.47 1.22697 21.4666 0.843633 22.3866 0.306966C22.0033 1.3803 21.3133 2.29985 20.3167 2.91318C21.2367 2.83652 22.1567 2.52985 23 2.14652C22.3867 3.06652 21.5434 3.91 20.6234 4.6Z" fill="white"/>
</svg>
