<svg width="72" height="68" viewBox="0 0 72 68" fill="none" xmlns="http://www.w3.org/2000/svg">
<g clip-path="url(#clip0)">
<path d="M16.9 6.60001H7.2C6.3 6.60001 5.6 7.10001 5.1 7.80001L0.3 16.1C-0.1 16.8 -0.1 17.8 0.3 18.5L5.1 26.8C5.6 27.6 6.3 28 7.2 28H16.8C17.7 28 18.5 27.5 18.9 26.8L23.7 18.5C24.1 17.8 24.1 16.8 23.7 16.1L18.9 7.80001C18.5 7.10001 17.7 6.60001 16.9 6.60001Z" fill="#FF2129"/>
<path d="M70.4004 1.2C70.3004 1 70.0004 1 69.8004 1L60.7004 2.5C60.3004 2.6 60.1004 2.9 60.1004 3.2V19.3C59.5004 18.9 58.8004 18.6 58.0004 18.5C56.7004 18.3 55.2004 18.7 53.9004 19.4C52.6004 20.1 51.6004 21.2 51.1004 22.5C50.5004 23.8 50.6004 25.1 51.2004 26.2C51.8004 27.3 52.9004 28 54.4004 28.1C54.6004 28.1 54.8004 28.1 55.1004 28.1C56.2004 28.1 57.4004 27.8 58.5004 27.1C59.8004 26.4 60.8004 25.3 61.3004 24C61.6004 23.4 61.7004 22.8 61.7004 22.2V8.4L70.1004 7C70.5004 6.9 70.7004 6.6 70.7004 6.3V1.8C70.7004 1.5 70.6004 1.3 70.4004 1.2ZM59.9004 23.6C59.5004 24.5 58.7004 25.4 57.7004 26C56.7004 26.6 55.6004 26.8 54.6004 26.7C53.7004 26.6 52.9004 26.2 52.6004 25.5C52.2004 24.8 52.2004 24 52.6004 23.1C53.0004 22.2 53.8004 21.3 54.8004 20.7C55.7004 20.2 56.6004 19.9 57.4004 19.9C57.6004 19.9 57.7004 19.9 57.9004 19.9C58.8004 20 59.6004 20.4 59.9004 21.1C60.2004 21.9 60.2004 22.7 59.9004 23.6ZM69.2004 5.6L61.6004 6.9V3.9L69.2004 2.6V5.6Z" fill="#FFFFFF" stroke="#FFFFFF" stroke-width="2"/>
<path d="M52.5001 35.4C51.1001 34 48.9001 33.6 47.1001 34.6L36.6001 40.4C35.9001 39.6 35.0001 39.1 33.9001 39L23.8001 38C21.0001 37.7 18.2001 38.5 16.0001 40.2L10.0001 44.7L9.60006 44C9.20006 43.3 8.20006 43 7.50006 43.4L1.20006 47C0.500059 47.4 0.200059 48.4 0.600059 49.1L10.5001 66.3C10.8001 66.8 11.3001 67.1 11.8001 67.1C12.1001 67.1 12.3001 67 12.6001 66.9L18.9001 63.3C19.6001 62.9 19.9001 61.9 19.5001 61.2L18.1001 58.8L20.5001 57.1L35.8001 55.3C38.4001 55 40.9001 53.8 42.7001 51.9L52.4001 41.6C54.2001 39.8 54.2001 37.1 52.5001 35.4ZM12.5001 63.5L4.10006 48.9L7.70006 46.8L16.1001 61.4L12.5001 63.5ZM50.3001 39.5L40.5001 49.8C39.2001 51.2 37.4001 52.1 35.5001 52.3L19.8001 54.1C19.5001 54.1 19.3001 54.2 19.1001 54.4L16.6001 56.2L11.5001 47.4L17.8001 42.7C19.4001 41.5 21.5001 40.9 23.5001 41.1L33.6001 42.1C33.9001 42.1 34.1001 42.3 34.3001 42.5C34.5001 42.7 34.5001 43 34.5001 43.3C34.4001 43.7 34.0001 44 33.6001 44.1L25.3001 44.4C24.5001 44.4 23.8001 45.1 23.8001 46C23.8001 46.8 24.5001 47.5 25.4001 47.5L33.7001 47.2C35.6001 47.1 37.2001 45.8 37.5001 43.9C37.5001 43.8 37.5001 43.6 37.5001 43.5L48.6001 37.5C49.2001 37.2 49.8001 37.3 50.3001 37.8C50.8001 38.1 50.8001 38.9 50.3001 39.5ZM30.6001 34.6C39.5001 34.6 46.6001 27.4 46.6001 18.6C46.6001 9.70001 39.4001 2.60001 30.6001 2.60001C21.8001 2.60001 14.6001 9.80001 14.6001 18.6C14.6001 27.4 21.8001 34.6 30.6001 34.6ZM30.6001 5.60001C37.8001 5.60001 43.6001 11.4 43.6001 18.6C43.6001 25.8 37.8001 31.6 30.6001 31.6C23.4001 31.6 17.6001 25.8 17.6001 18.6C17.7001 11.4 23.5001 5.60001 30.6001 5.60001ZM23.7001 18.5C23.7001 17.7 24.4001 17 25.2001 17H29.1001V10.7C29.1001 9.90001 29.8001 9.20001 30.6001 9.20001C31.4001 9.20001 32.1001 9.90001 32.1001 10.7V18.6C32.1001 19.4 31.4001 20.1 30.6001 20.1H25.2001C24.4001 20.1 23.7001 19.4 23.7001 18.5Z" fill="#FFFFFF"/>
</g>
<defs>
<clipPath id="clip0">
<rect width="71.7" height="67.1" fill="white"/>
</clipPath>
</defs>
</svg>
