<svg width="76" height="59" viewBox="0 0 76 59" fill="none" xmlns="http://www.w3.org/2000/svg">
<g clip-path="url(#clip0)">
<path d="M16.9 0H7.2C6.3 0 5.6 0.5 5.1 1.2L0.3 9.5C-0.1 10.2 -0.1 11.2 0.3 11.9L5.1 20.2C5.6 21 6.3 21.4 7.2 21.4H16.8C17.7 21.4 18.5 20.9 18.9 20.2L23.7 11.9C24.1 11.2 24.1 10.2 23.7 9.5L18.9 1.2C18.5 0.5 17.7 0 16.9 0Z" fill="#FF2129"/>
<path d="M14.8 6.73779C11.8 6.73779 9.3 9.23779 9.3 12.2378V47.7378H6.1C5.3 47.7378 4.5 48.5378 4.5 49.3378V52.5378C4.5 56.0378 7.3 58.8378 10.8 58.8378H69.2C72.7 58.8378 75.5 56.0378 75.5 52.5378V49.3378C75.5 48.5378 74.7 47.7378 73.9 47.7378H70.7V12.2378C70.7 9.23779 68.2 6.73779 65.2 6.73779H14.8ZM14.8 9.83783H65.3C66.6 9.83783 67.7 10.8378 67.7 12.2378V47.7378H12.4V12.2378C12.4 10.9378 13.4 9.83783 14.8 9.83783ZM53 12.9378C47.1 14.5378 41.2 16.3378 35.3 18.0378C34.4 18.3378 33.6 19.0378 33.7 20.1378C33.7 25.2378 33.7 30.2378 33.7 35.2378C33.4 35.2378 33.1 35.1378 32.9 35.1378C32.2 35.1378 31.6 35.2378 30.9 35.4378C29.5 35.8378 28.4 36.6378 27.4 37.5378C26.5 38.5378 25.8 39.6378 25.8 41.0378C25.8 42.4378 26.7 43.6378 27.9 44.1378C29.1 44.6378 30.4 44.6378 31.8 44.1378C33.2 43.7378 34.3 42.9378 35.3 42.0378C36.2 41.0378 36.9 39.9378 36.9 38.5378C36.9 35.2378 36.9 31.7378 36.9 28.3378L51.1 24.2378V30.4378C50.8 30.4378 50.5 30.3378 50.3 30.3378C49.6 30.3378 49 30.4378 48.3 30.6378C46.9 31.0378 45.8 31.8378 44.8 32.7378C43.9 33.7378 43.2 34.8378 43.2 36.2378C43.2 37.6378 44.1 38.8378 45.3 39.3378C46.5 39.8378 47.8 39.8378 49.2 39.3378C50.6 38.9378 51.7 38.1378 52.7 37.2378C53.6 36.2378 54.3 35.1378 54.3 33.7378C54.3 26.8378 54.3 19.6378 54.3 13.9378C54.1 13.3378 53.6 12.9378 53 12.9378ZM51.2 16.6378V21.0378L36.9 25.1378V20.7378L51.2 16.6378ZM50 33.6378C50.3 33.6378 50.5 33.6378 50.8 33.7378C51.1 33.8378 51 33.7378 51 33.9378C51 34.1378 50.8 34.7378 50.3 35.2378C49.8 35.7378 49 36.3378 48.2 36.5378C47.4 36.8378 46.7 36.7378 46.5 36.6378C46.2 36.5378 46.3 36.6378 46.3 36.4378C46.3 36.2378 46.5 35.6378 47 35.1378C47.5 34.6378 48.3 34.0378 49.1 33.8378C49.5 33.6378 49.7 33.6378 50 33.6378ZM32.7 38.3378C33 38.3378 33.2 38.3378 33.5 38.4378C33.8 38.5378 33.7 38.4378 33.7 38.6378C33.7 38.8378 33.5 39.4378 33 39.9378C32.5 40.4378 31.7 41.0378 30.9 41.2378C30.1 41.5378 29.4 41.4378 29.2 41.3378C28.9 41.2378 29 41.3378 29 41.1378C29 40.9378 29.2 40.3378 29.7 39.8378C30.2 39.3378 31 38.7378 31.8 38.5378C32.1 38.4378 32.4 38.3378 32.7 38.3378ZM7.7 50.9378H72.4V52.5378C72.4 54.3378 71 55.7378 69.2 55.7378H10.8C9 55.7378 7.6 54.3378 7.6 52.5378L7.7 50.9378Z" fill="#ffffff"/>
</g>
<defs>
<clipPath id="clip0">
<rect width="75.6" height="58.8" fill="white"/>
</clipPath>
</defs>
</svg>
