<svg width="68" height="55" viewBox="0 0 68 55" fill="none" xmlns="http://www.w3.org/2000/svg">
<g clip-path="url(#clip0_5_360)">
<path d="M16.89 3.84998H7.19C6.76854 3.85674 6.35569 3.97039 5.99014 4.18027C5.6246 4.39016 5.31833 4.6894 5.10001 5.04997L0.300004 13.38C0.103035 13.7493 9.53674e-07 14.1614 9.53674e-07 14.58C9.53674e-07 14.9985 0.103035 15.4107 0.300004 15.78L5.10001 24.11C5.30505 24.4822 5.6084 24.791 5.97696 25.0026C6.34553 25.2143 6.76514 25.3206 7.19 25.31H16.8C17.2218 25.3113 17.6363 25.2009 18.0016 24.9902C18.367 24.7794 18.67 24.4757 18.88 24.11L23.68 15.78C23.877 15.4107 23.98 14.9985 23.98 14.58C23.98 14.1614 23.877 13.7493 23.68 13.38L18.89 5.04997C18.6891 4.69384 18.3992 4.39599 18.0486 4.18563C17.698 3.97527 17.2988 3.85961 16.89 3.84998Z" fill="#FF2129"/>
<path d="M67.21 50.6401L62.79 47.0601V48.5501C62.79 48.6827 62.7373 48.8098 62.6436 48.9036C62.5498 48.9974 62.4226 49.0501 62.29 49.0501H51.51C50.2674 49.8522 48.9555 50.5417 47.59 51.1101C46.6867 51.4966 45.7618 51.8304 44.82 52.1101H62.29C62.4253 52.1101 62.555 52.1638 62.6506 52.2594C62.7463 52.3551 62.8 52.4848 62.8 52.6201V54.1801L67.21 50.6401Z" fill="white"/>
<path d="M13.37 38.2299C14.8438 41.2373 16.9121 43.9146 19.45 46.0999C20.2933 46.8312 21.189 47.4997 22.13 48.0999H30.13C28.3627 47.6032 26.6582 46.9053 25.05 46.0199C21.1794 43.9694 18.0363 40.7739 16.05 36.8699C13.5229 31.7233 13.1048 25.7935 14.8848 20.3432C16.6648 14.8929 20.5023 10.3529 25.58 7.68994L24.22 4.93994C21.4287 6.41306 18.9415 8.40142 16.89 10.7999C14.7829 13.245 13.1668 16.0733 12.13 19.1299C11.0928 22.184 10.6581 25.4103 10.85 28.6299C11.0359 31.9668 11.893 35.232 13.37 38.2299Z" fill="white"/>
<path d="M37.46 39.55C40.7771 39.5474 43.9575 38.2285 46.303 35.883C48.6485 33.5375 49.9674 30.3571 49.97 27.0401C49.9621 23.7265 48.6409 20.5512 46.2959 18.21C43.951 15.8688 40.7736 14.5527 37.46 14.55C34.1464 14.5553 30.9701 15.874 28.627 18.2171C26.284 20.5601 24.9653 23.7365 24.96 27.05C24.9653 30.3636 26.284 33.54 28.627 35.883C30.9701 38.2261 34.1464 39.5448 37.46 39.55ZM37.46 17.4C40.0159 17.4027 42.4663 18.4192 44.2736 20.2265C46.0809 22.0337 47.0974 24.4842 47.1 27.0401C47.0974 29.5959 46.0809 32.0464 44.2736 33.8536C42.4663 35.6609 40.0159 36.6774 37.46 36.68C34.9041 36.6774 32.4537 35.6609 30.6464 33.8536C28.8391 32.0464 27.8226 29.5959 27.82 27.0401C27.8358 24.4919 28.8578 22.0533 30.6634 20.2552C32.4689 18.4571 34.9118 17.4453 37.46 17.44V17.4Z" fill="white"/>
<path d="M51.08 48.17C52.524 47.2153 53.8646 46.1127 55.08 44.88C57.3678 42.6026 59.1916 39.9027 60.45 36.93C61.7621 33.85 62.4422 30.5378 62.45 27.19C62.4422 23.8422 61.7621 20.53 60.45 17.45C59.1916 14.4773 57.3678 11.7773 55.08 9.49998C52.8041 7.21298 50.1036 5.39227 47.13 4.13998C44.0521 2.8213 40.7385 2.1409 37.39 2.13998C37.3235 2.14 37.2576 2.12674 37.1963 2.10099C37.135 2.07524 37.0794 2.03751 37.0329 1.99002C36.9863 1.94253 36.9497 1.88622 36.9252 1.8244C36.9006 1.76258 36.8887 1.69649 36.89 1.62999V-0.0100098L32.42 3.66999L36.89 7.34999V5.69999C36.89 5.56738 36.9427 5.4402 37.0365 5.34644C37.1302 5.25267 37.2574 5.19999 37.39 5.19999C43.2248 5.19999 48.8205 7.51784 52.9464 11.6436C57.0722 15.7694 59.39 21.3652 59.39 27.2C59.39 33.0348 57.0722 38.6305 52.9464 42.7563C48.8205 46.8821 43.2248 49.2 37.39 49.2H5.75V52.26H37.46C40.8085 52.2591 44.1221 51.5787 47.2 50.26C48.5519 49.678 49.8502 48.9786 51.08 48.17Z" fill="white"/>
<path d="M32.24 29.07L34.44 31.07C34.7994 31.3871 35.2608 31.5645 35.74 31.57C36.2577 31.5626 36.7524 31.3547 37.12 30.99L42.75 25.37C42.8978 25.2224 43.0151 25.047 43.0952 24.854C43.1752 24.6609 43.2164 24.454 43.2164 24.245C43.2164 24.0361 43.1752 23.8291 43.0952 23.6361C43.0151 23.4431 42.8978 23.2677 42.75 23.12C42.6025 22.969 42.4255 22.8498 42.23 22.77C42.0401 22.69 41.836 22.6492 41.63 22.65C41.4199 22.6498 41.2119 22.6913 41.018 22.772C40.824 22.8526 40.648 22.9709 40.5 23.12L35.7 27.92L34.36 26.73C34.0449 26.4493 33.6317 26.3043 33.2103 26.3268C32.7889 26.3493 32.3934 26.5373 32.11 26.85C31.8322 27.1668 31.6887 27.5793 31.71 28C31.7399 28.4123 31.9302 28.7964 32.24 29.07Z" fill="white"/>
</g>
<defs>
<clipPath id="clip0_5_360">
<rect width="67.21" height="54.23" fill="white"/>
</clipPath>
</defs>
</svg>
