<svg width="72" height="68" viewBox="0 0 72 68" fill="none" xmlns="http://www.w3.org/2000/svg">
<g clip-path="url(#clip0_322_311)">
<path d="M16.91 6.60999H7.22C6.80025 6.61843 6.38945 6.73287 6.02579 6.94267C5.66213 7.15248 5.35744 7.45083 5.14001 7.80998L0.330017 16.14C0.133048 16.5093 0.0299988 16.9214 0.0299988 17.34C0.0299988 17.7585 0.133048 18.1707 0.330017 18.54L5.14001 26.87C5.34426 27.2407 5.64603 27.5485 6.01266 27.76C6.3793 27.9715 6.79682 28.0787 7.22 28.07H16.83C17.2518 28.0713 17.6663 27.9609 18.0316 27.7502C18.397 27.5394 18.7 27.2357 18.91 26.87L23.72 18.54C23.917 18.1707 24.02 17.7585 24.02 17.34C24.02 16.9214 23.917 16.5093 23.72 16.14L18.91 7.80998C18.7091 7.45385 18.4192 7.15601 18.0686 6.94565C17.718 6.73529 17.3188 6.61962 16.91 6.60999Z" fill="#FF2129"/>
<path d="M70.45 1.17999C70.3637 1.11084 70.2642 1.06009 70.1576 1.03085C70.051 1.00161 69.9395 0.994512 69.83 1.00999L60.77 2.52999C60.5933 2.55654 60.4323 2.64608 60.3165 2.78208C60.2007 2.91809 60.138 3.09139 60.14 3.27V19.34C59.5046 18.8901 58.7642 18.6112 57.99 18.53C56.5676 18.3883 55.1374 18.7073 53.91 19.44C52.6643 20.1411 51.6734 21.2196 51.08 22.52C50.7854 23.0968 50.6398 23.7381 50.6566 24.3855C50.6734 25.033 50.852 25.6659 51.1761 26.2266C51.5002 26.7873 51.9595 27.258 52.5122 27.5957C53.0648 27.9334 53.6932 28.1274 54.34 28.16C54.5664 28.1752 54.7936 28.1752 55.02 28.16C56.2166 28.144 57.3884 27.8166 58.42 27.21C59.6701 26.5144 60.6625 25.4343 61.25 24.13C61.5086 23.5578 61.6448 22.9379 61.65 22.31V8.44L70.08 7.03999C70.2575 7.01124 70.4187 6.9197 70.5343 6.78204C70.65 6.64438 70.7123 6.46976 70.71 6.28999V1.75999C70.7104 1.65038 70.6875 1.54194 70.6426 1.44192C70.5978 1.3419 70.5321 1.25259 70.45 1.17999ZM59.91 23.58C59.4326 24.5707 58.6678 25.3944 57.7152 25.9439C56.7626 26.4933 55.6665 26.7429 54.57 26.66C54.1572 26.6532 53.7533 26.5396 53.3975 26.3302C53.0417 26.1209 52.7462 25.823 52.5397 25.4655C52.3333 25.108 52.223 24.7031 52.2195 24.2903C52.216 23.8775 52.3196 23.4709 52.52 23.11C52.9834 22.1092 53.7541 21.2824 54.72 20.75C55.5198 20.2747 56.4298 20.0162 57.36 20C57.5265 19.9897 57.6935 19.9897 57.86 20C58.2739 20.0039 58.6796 20.1157 59.0371 20.3243C59.3946 20.533 59.6915 20.8313 59.8985 21.1897C60.1055 21.5482 60.2155 21.9544 60.2175 22.3683C60.2195 22.7823 60.1135 23.1896 59.91 23.55V23.58ZM69.2 5.66999L61.65 6.92999V3.92999L69.2 2.66999V5.66999Z" fill="white" stroke="white" stroke-width="2"/>
<path d="M52.49 35.38C51.8064 34.6833 50.9144 34.2283 49.949 34.0839C48.9836 33.9396 47.9975 34.1137 47.14 34.58L36.61 40.34C35.9408 39.5416 34.9865 39.0357 33.95 38.93L23.8 37.93C21.0054 37.6611 18.2116 38.4497 15.97 40.14L9.97 44.64L9.58002 43.96C9.3752 43.6079 9.03921 43.3513 8.64563 43.2464C8.25206 43.1414 7.83295 43.1967 7.48001 43.4L1.20999 47.02C0.859904 47.2267 0.605027 47.5626 0.500278 47.9554C0.395528 48.3482 0.449294 48.7665 0.649997 49.12L10.6 66.35C10.7341 66.5843 10.9277 66.7789 11.1613 66.9141C11.3949 67.0494 11.6601 67.1204 11.93 67.12C12.201 67.1214 12.4672 67.0487 12.7 66.91L18.97 63.3C19.3238 63.0969 19.5825 62.7617 19.6894 62.3679C19.7963 61.9742 19.7425 61.5542 19.54 61.2L18.16 58.8L20.57 57.07L35.91 55.27C38.5317 54.9686 40.9636 53.7544 42.78 51.84L52.53 41.57C53.3257 40.7337 53.7662 39.6214 53.7587 38.467C53.7513 37.3126 53.2965 36.206 52.49 35.38ZM12.49 63.51L4.08002 48.95L7.69001 46.87L16.1 61.43L12.49 63.51ZM50.3 39.51L40.54 49.78C39.2182 51.1724 37.4477 52.0541 35.54 52.27L19.81 54.11C19.5503 54.1415 19.3027 54.2378 19.09 54.39L16.6 56.18L11.51 47.38L17.81 42.67C19.4395 41.4426 21.4689 40.8684 23.5 41.06L33.65 42.06C33.9115 42.0947 34.1487 42.2313 34.31 42.44C34.3904 42.5514 34.447 42.6781 34.4762 42.8123C34.5055 42.9465 34.5068 43.0853 34.48 43.22C34.4298 43.4257 34.3155 43.61 34.1538 43.7466C33.992 43.8832 33.7912 43.9649 33.58 43.98L25.31 44.29C24.9227 44.3326 24.566 44.5205 24.3116 44.8157C24.0573 45.1109 23.9244 45.4916 23.9396 45.8809C23.9548 46.2703 24.1171 46.6394 24.3936 46.9139C24.6702 47.1884 25.0405 47.3478 25.43 47.36L33.69 47.05C34.5998 47.0201 35.4722 46.6808 36.1631 46.0881C36.854 45.4954 37.3221 44.6847 37.49 43.79C37.5003 43.6636 37.5003 43.5365 37.49 43.41L48.58 37.41C48.8496 37.2651 49.1588 37.2111 49.4615 37.2562C49.7643 37.3012 50.0443 37.4429 50.26 37.66C50.5106 37.9208 50.6505 38.2684 50.6505 38.63C50.6505 38.9917 50.5106 39.3393 50.26 39.6L50.3 39.51ZM30.63 34.61C33.7924 34.6002 36.8809 33.6534 39.5055 31.8893C42.1301 30.1252 44.173 27.6229 45.3764 24.6984C46.5797 21.7739 46.8895 18.5585 46.2665 15.4581C45.6435 12.3577 44.1157 9.51141 41.876 7.27877C39.6364 5.04613 36.7854 3.52724 33.6831 2.91392C30.5808 2.30059 27.3663 2.62034 24.4456 3.8328C21.5249 5.04526 19.029 7.09603 17.2731 9.72613C15.5172 12.3562 14.58 15.4477 14.58 18.61C14.58 20.7154 14.9955 22.8001 15.8027 24.7445C16.6099 26.689 17.7929 28.4551 19.284 29.9415C20.775 31.4279 22.5447 32.6054 24.4917 33.4065C26.4387 34.2076 28.5247 34.6166 30.63 34.61ZM30.63 5.61004C33.2012 5.61004 35.7146 6.37247 37.8524 7.80092C39.9903 9.22938 41.6565 11.2597 42.6404 13.6352C43.6244 16.0106 43.8818 18.6245 43.3802 21.1462C42.8786 23.668 41.6405 25.9843 39.8224 27.8024C38.0043 29.6205 35.6879 30.8586 33.1662 31.3603C30.6444 31.8619 28.0306 31.6044 25.6551 30.6205C23.2797 29.6365 21.2494 27.9703 19.8209 25.8324C18.3924 23.6946 17.63 21.1812 17.63 18.61C17.63 15.1622 18.9997 11.8556 21.4376 9.41764C23.8756 6.97967 27.1822 5.61004 30.63 5.61004ZM23.63 18.61C23.63 18.2043 23.7912 17.8151 24.0781 17.5282C24.3651 17.2412 24.7542 17.08 25.16 17.08H29.03V10.67C29.0612 10.2843 29.2364 9.92448 29.5208 9.6621C29.8052 9.39972 30.178 9.25403 30.565 9.25403C30.952 9.25403 31.3248 9.39972 31.6092 9.6621C31.8936 9.92448 32.0688 10.2843 32.1 10.67V18.55C32.1013 18.7518 32.0627 18.9518 31.9864 19.1386C31.9101 19.3254 31.7976 19.4952 31.6554 19.6384C31.5132 19.7815 31.3441 19.8951 31.1578 19.9726C30.9716 20.0501 30.7718 20.09 30.57 20.09H25.16C24.7621 20.0719 24.3867 19.9004 24.1126 19.6113C23.8384 19.3223 23.687 18.9383 23.69 18.54L23.63 18.61Z" fill="white"/>
</g>
<defs>
<clipPath id="clip0_322_311">
<rect width="71.71" height="67.15" fill="white"/>
</clipPath>
</defs>
</svg>
