<svg width="61" height="52" viewBox="0 0 61 52" fill="none" xmlns="http://www.w3.org/2000/svg">
<g clip-path="url(#clip0_322_247)">
<path d="M15.2885 0H6.51211C6.13261 0.00590951 5.76078 0.108757 5.43134 0.298934C5.1019 0.489111 4.8256 0.760417 4.62822 1.08752L0.27172 8.70931C0.0932966 9.04846 0 9.42658 0 9.81054C0 10.1945 0.0932966 10.5726 0.27172 10.9118L4.62822 18.5153C4.81122 18.8565 5.08385 19.1402 5.41619 19.3353C5.74853 19.5303 6.12771 19.6292 6.51211 19.6211H15.216C15.5991 19.6223 15.9756 19.5205 16.3067 19.3261C16.6378 19.1318 16.9116 18.8519 17.0999 18.5153L21.4474 10.9118C21.6258 10.5726 21.7191 10.1945 21.7191 9.81054C21.7191 9.42658 21.6258 9.04846 21.4474 8.70931L17.0999 1.08752C16.9176 0.763162 16.6546 0.492314 16.337 0.301625C16.0194 0.110937 15.658 0.00697926 15.2885 0Z" fill="#FF2129"/>
<path d="M5.80565 45.6942C5.80814 45.9449 5.8573 46.1929 5.95057 46.4253C6.05087 46.6558 6.19557 46.864 6.37625 47.0376C6.55222 47.2126 6.76181 47.3495 6.99214 47.4397C7.22618 47.5308 7.47493 47.5773 7.72577 47.5768H39.3443C39.7446 48.8575 40.5392 49.9761 41.6125 50.7702C42.6858 51.5642 43.9821 51.9923 45.313 51.9923C46.6439 51.9923 47.9402 51.5642 49.0135 50.7702C50.0868 49.9761 50.8813 48.8575 51.2817 47.5768H59.098C59.3459 47.5774 59.5917 47.5309 59.8226 47.4397C60.0538 47.3419 60.2656 47.2025 60.4475 47.0285C60.6209 46.849 60.7592 46.6382 60.8551 46.407C60.9527 46.176 61.002 45.9271 61 45.6759C60.9981 45.1696 60.7998 44.6841 60.4475 44.3234C60.268 44.1462 60.0556 44.0064 59.8226 43.9121C59.5917 43.8209 59.3459 43.7744 59.098 43.775H51.2817C50.8863 42.4896 50.0937 41.3654 49.0198 40.5671C47.9458 39.7688 46.6469 39.3381 45.313 39.3381C43.9791 39.3381 42.6801 39.7688 41.6062 40.5671C40.5323 41.3654 39.7397 42.4896 39.3443 43.775H7.72577C7.47314 43.7702 7.22208 43.8162 6.98727 43.9103C6.75245 44.0045 6.53857 44.1449 6.35814 44.3234C6.17984 44.5042 6.03831 44.7184 5.94151 44.954C5.84581 45.1885 5.79954 45.4406 5.80565 45.6942ZM5.80565 28.6046C5.80727 28.8554 5.85646 29.1035 5.95057 29.3357C6.05087 29.5662 6.19557 29.7743 6.37625 29.948C6.55222 30.123 6.76181 30.2598 6.99214 30.3501C7.22618 30.4412 7.47493 30.4876 7.72577 30.4872H13.0242C13.4222 31.7713 14.2164 32.8937 15.2908 33.6906C16.3653 34.4874 17.6639 34.9172 18.9974 34.9172C20.3309 34.9172 21.6295 34.4874 22.704 33.6906C23.7785 32.8937 24.5726 31.7713 24.9706 30.4872H59.098C59.3459 30.4878 59.5917 30.4413 59.8226 30.3501C60.0538 30.2523 60.2656 30.1129 60.4475 29.9389C60.6229 29.761 60.7614 29.5498 60.8551 29.3174C60.9527 29.0863 61.002 28.8375 61 28.5863C60.9981 28.0799 60.7998 27.5944 60.4475 27.2337C60.268 27.0566 60.0556 26.9168 59.8226 26.8225C59.5917 26.7313 59.3459 26.6848 59.098 26.6854H24.9706C24.5726 25.4012 23.7785 24.2789 22.704 23.482C21.6295 22.6852 20.3309 22.2554 18.9974 22.2554C17.6639 22.2554 16.3653 22.6852 15.2908 23.482C14.2164 24.2789 13.4222 25.4012 13.0242 26.6854H7.72577C7.47198 26.6849 7.22025 26.7313 6.98308 26.8225C6.75001 26.9168 6.53765 27.0566 6.35814 27.2337C6.17984 27.4145 6.03831 27.6287 5.94151 27.8643C5.84581 28.0989 5.79954 28.351 5.80565 28.6046ZM5.80565 11.5149C5.80814 11.7657 5.8573 12.0137 5.95057 12.2461C6.05087 12.4766 6.19557 12.6847 6.37625 12.8584C6.55222 13.0334 6.76181 13.1702 6.99214 13.2605C7.22618 13.3515 7.47493 13.398 7.72577 13.3975H27.4342C27.8322 14.6817 28.6263 15.804 29.7008 16.6009C30.7752 17.3978 32.0739 17.8276 33.4074 17.8276C34.7408 17.8276 36.0395 17.3978 37.1139 16.6009C38.1884 15.804 38.9825 14.6817 39.3806 13.3975H59.098C59.3459 13.3982 59.5917 13.3517 59.8226 13.2605C60.0538 13.1626 60.2656 13.0233 60.4475 12.8492C60.6229 12.6714 60.7614 12.4601 60.8551 12.2278C60.9527 11.9967 61.002 11.7478 61 11.4967C60.9981 10.9903 60.7998 10.5048 60.4475 10.1441C60.268 9.96694 60.0556 9.8272 59.8226 9.73288C59.5917 9.64169 59.3459 9.59518 59.098 9.59579H39.3806C38.9825 8.31161 38.1884 7.18928 37.1139 6.39241C36.0395 5.59553 34.7408 5.16577 33.4074 5.16577C32.0739 5.16577 30.7752 5.59553 29.7008 6.39241C28.6263 7.18928 27.8322 8.31161 27.4342 9.59579H7.72577C7.47198 9.59525 7.22025 9.64172 6.98308 9.73288C6.75001 9.8272 6.53765 9.96694 6.35814 10.1441C6.17984 10.3249 6.03831 10.5391 5.94151 10.7747C5.84581 11.0093 5.79954 11.2614 5.80565 11.5149ZM16.4931 28.5863C16.4931 28.0864 16.6398 27.5977 16.9147 27.1818C17.1896 26.7659 17.5803 26.4415 18.0377 26.2493C18.4951 26.0572 18.9986 26.006 19.4848 26.1022C19.9709 26.1984 20.418 26.4377 20.7696 26.7899C21.1211 27.1421 21.3615 27.5915 21.4603 28.0813C21.5592 28.5712 21.5121 29.0796 21.325 29.5424C21.1378 30.0053 20.8191 30.4019 20.4089 30.6823C19.9987 30.9626 19.5155 31.1141 19.0201 31.1178C18.6877 31.1252 18.3573 31.0649 18.0486 30.9405C17.7399 30.8162 17.4592 30.6303 17.2233 30.394C16.9875 30.1576 16.8012 29.8758 16.6757 29.5652C16.5503 29.2546 16.4882 28.9217 16.4931 28.5863ZM30.903 11.4967C30.903 10.996 31.0502 10.5066 31.3259 10.0903C31.6015 9.67397 31.9934 9.34951 32.4518 9.15791C32.9102 8.96631 33.4147 8.91617 33.9013 9.01384C34.388 9.11152 34.835 9.35263 35.1859 9.70666C35.5368 10.0607 35.7757 10.5117 35.8725 11.0028C35.9693 11.4939 35.9196 12.0028 35.7297 12.4654C35.5399 12.928 35.2183 13.3233 34.8057 13.6015C34.3931 13.8797 33.9081 14.0281 33.4119 14.0281C33.0811 14.0331 32.7526 13.9709 32.446 13.8455C32.1395 13.72 31.8609 13.5337 31.627 13.2977C31.393 13.0616 31.2084 12.7806 31.0841 12.4712C30.9597 12.1619 30.8982 11.8305 30.903 11.4967ZM42.8042 45.6759C42.8042 45.1741 42.952 44.6836 43.2289 44.2667C43.5058 43.8498 43.8993 43.5254 44.3593 43.3347C44.8193 43.1439 45.3251 43.0954 45.8125 43.1953C46.2999 43.2952 46.7469 43.5391 47.0966 43.8958C47.4464 44.2526 47.6832 44.7062 47.7769 45.1991C47.8706 45.6919 47.817 46.2018 47.623 46.6638C47.4289 47.1259 47.1031 47.5193 46.687 47.7941C46.2709 48.069 45.7831 48.2128 45.2858 48.2074C44.9576 48.2074 44.6327 48.1417 44.3298 48.0142C44.0269 47.8866 43.7522 47.6997 43.5213 47.4643C43.2905 47.2289 43.1083 46.9496 42.9852 46.6426C42.8621 46.3356 42.8006 46.0071 42.8042 45.6759Z" fill="white"/>
</g>
<defs>
<clipPath id="clip0_322_247">
<rect width="61" height="52" fill="white"/>
</clipPath>
</defs>
</svg>
