<svg width="68" height="68" viewBox="0 0 68 68" fill="none" xmlns="http://www.w3.org/2000/svg">
<path d="M14.3471 2.03735H6.11236C5.34831 2.03735 4.75406 2.46182 4.32959 3.05608L0.254682 10.1023C-0.0848939 10.6965 -0.0848939 11.5455 0.254682 12.1397L4.32959 19.1859C4.75406 19.8651 5.34831 20.2046 6.11236 20.2046H14.2622C15.0262 20.2046 15.7054 19.7802 16.0449 19.1859L20.1199 12.1397C20.4594 11.5455 20.4594 10.6965 20.1199 10.1023L16.0449 3.05608C15.7054 2.46182 15.0262 2.03735 14.3471 2.03735Z" fill="#FF2129"/>
<path d="M57.3034 54.8414C59.6804 51.9551 61.1236 48.2197 61.1236 44.1448C61.1236 34.8065 53.4831 27.166 44.1448 27.166C42.9563 27.166 41.8527 27.2509 40.7491 27.5056V0H13.583V25.4682C12.1398 24.3645 10.4419 23.7703 8.48939 23.7703C3.82022 23.7703 0 27.5905 0 32.2597C0 36.9288 3.82022 40.7491 8.48939 40.7491C13.1586 40.7491 16.9788 36.9288 16.9788 32.2597V13.583H37.3533V25.4682C35.9101 24.3645 34.2122 23.7703 32.2597 23.7703C27.5905 23.7703 23.7703 27.5905 23.7703 32.2597C23.7703 35.3159 25.3833 38.0325 27.8452 39.4757C27.4207 40.9188 27.166 42.5318 27.166 44.1448C27.166 53.4831 34.8065 61.1236 44.1448 61.1236C48.2197 61.1236 51.9551 59.6804 54.9263 57.3034L65.623 68L68 65.623L57.3034 54.8414ZM8.48939 37.3533C5.68789 37.3533 3.39576 35.0612 3.39576 32.2597C3.39576 29.4582 5.68789 27.166 8.48939 27.166C11.2909 27.166 13.583 29.4582 13.583 32.2597C13.583 35.0612 11.2909 37.3533 8.48939 37.3533ZM16.9788 10.1873V3.39576H37.3533V10.1873H16.9788ZM27.166 32.2597C27.166 29.4582 29.4582 27.166 32.2597 27.166C33.8727 27.166 35.3159 27.9301 36.2497 29.1186C33.1935 30.7316 30.7316 33.1935 29.1186 36.2497C27.9301 35.3159 27.166 33.8727 27.166 32.2597ZM44.1448 57.7278C36.6742 57.7278 30.5618 51.6155 30.5618 44.1448C30.5618 36.6742 36.6742 30.5618 44.1448 30.5618C51.6155 30.5618 57.7278 36.6742 57.7278 44.1448C57.7278 51.6155 51.6155 57.7278 44.1448 57.7278ZM44.1448 50.9363V54.3321C38.5418 54.3321 33.9576 49.7478 33.9576 44.1448H37.3533C37.3533 47.8801 40.4095 50.9363 44.1448 50.9363Z" fill="white"/>
</svg>
