<svg width="59" height="42" viewBox="0 0 59 42" fill="none" xmlns="http://www.w3.org/2000/svg">
<g clip-path="url(#clip0_322_238)">
<path d="M12.0164 0H5.11836C4.81955 0.00602694 4.52711 0.0876907 4.26824 0.237397C4.00936 0.387103 3.79245 0.599989 3.63767 0.856267L0.213562 6.8002C0.073345 7.06373 0 7.3578 0 7.65647C0 7.95514 0.073345 8.24921 0.213562 8.51274L3.63767 14.4709C3.78307 14.7355 3.9979 14.9551 4.2589 15.106C4.51989 15.257 4.81711 15.3335 5.11836 15.3272H11.9595C12.2597 15.3281 12.5548 15.2494 12.8149 15.099C13.0749 14.9486 13.2907 14.7319 13.4402 14.4709L16.8571 8.52701C16.9974 8.26348 17.0707 7.96941 17.0707 7.67074C17.0707 7.37208 16.9974 7.078 16.8571 6.81447L13.4402 0.870541C13.299 0.613758 13.0934 0.398366 12.8437 0.245683C12.5939 0.0929993 12.3088 0.00831393 12.0164 0Z" fill="#FF2129"/>
<path d="M35.914 15.4271H9.68859C9.38651 15.4271 9.0968 15.3068 8.8832 15.0927C8.66959 14.8786 8.54959 14.5882 8.54959 14.2854C8.54959 13.9826 8.66959 13.6922 8.8832 13.4781C9.0968 13.264 9.38651 13.1437 9.68859 13.1437H35.914C36.2161 13.1437 36.5058 13.264 36.7194 13.4781C36.933 13.6922 37.053 13.9826 37.053 14.2854C37.053 14.5882 36.933 14.8786 36.7194 15.0927C36.5058 15.3068 36.2161 15.4271 35.914 15.4271Z" fill="white" stroke="white" stroke-width="0.8"/>
<path d="M35.914 7.42816H9.68859C9.38651 7.42816 9.0968 7.30787 8.8832 7.09376C8.66959 6.87966 8.54959 6.58926 8.54959 6.28647C8.54959 5.98367 8.66959 5.69328 8.8832 5.47917C9.0968 5.26506 9.38651 5.14478 9.68859 5.14478H35.914C36.2161 5.14478 36.5058 5.26506 36.7194 5.47917C36.933 5.69328 37.053 5.98367 37.053 6.28647C37.053 6.58926 36.933 6.87966 36.7194 7.09376C36.5058 7.30787 36.2161 7.42816 35.914 7.42816Z" fill="white" stroke="white" stroke-width="0.8"/>
<path d="M25.0508 23.4261H9.68859C9.38651 23.4261 9.0968 23.3058 8.8832 23.0917C8.66959 22.8776 8.54959 22.5872 8.54959 22.2844C8.54959 21.9816 8.66959 21.6912 8.8832 21.4771C9.0968 21.263 9.38651 21.1427 9.68859 21.1427H25.0508C25.2004 21.1427 25.3485 21.1722 25.4867 21.2296C25.6249 21.287 25.7504 21.3711 25.8562 21.4771C25.962 21.5831 26.0459 21.709 26.1031 21.8475C26.1603 21.986 26.1898 22.1345 26.1898 22.2844C26.1898 22.4343 26.1603 22.5828 26.1031 22.7213C26.0459 22.8598 25.962 22.9857 25.8562 23.0917C25.7504 23.1977 25.6249 23.2818 25.4867 23.3392C25.3485 23.3966 25.2004 23.4261 25.0508 23.4261Z" fill="white" stroke="white" stroke-width="0.8"/>
<path d="M58.3166 0.842027C58.1908 0.7334 58.0426 0.654031 57.8826 0.609617C57.7226 0.565203 57.5548 0.556847 57.3912 0.585146L43.709 2.86853C43.443 2.91387 43.2016 3.0518 43.0271 3.25802C42.8526 3.46424 42.7563 3.72555 42.7551 3.99595V28.314C41.8024 27.6292 40.6889 27.2039 39.5232 27.0795C37.3783 26.9011 35.2303 27.3836 33.3665 28.4624C31.5027 29.5413 30.0121 31.165 29.0942 33.1162C28.6438 33.9894 28.4192 34.9619 28.4411 35.9446C28.463 36.9273 28.7306 37.8888 29.2194 38.741C29.7082 39.5931 30.4026 40.3086 31.2389 40.8219C32.0753 41.3352 33.0267 41.6299 34.0062 41.6789C34.3462 41.7216 34.6886 41.7431 35.0313 41.7431C36.8369 41.7234 38.6061 41.2315 40.1639 40.316C42.0518 39.2654 43.5501 37.6309 44.4351 35.6565C44.8198 34.7864 45.0233 33.8467 45.0331 32.895V11.8237L57.7685 9.683C58.0337 9.63748 58.2743 9.49928 58.4476 9.29291C58.6209 9.08654 58.7158 8.82534 58.7153 8.55559V1.69829C58.7167 1.53275 58.6817 1.36894 58.6128 1.21848C58.5439 1.06803 58.4427 0.934621 58.3166 0.827753V0.842027ZM42.3422 34.7146C41.6188 36.2112 40.4641 37.4559 39.0276 38.2878C37.591 39.1197 35.9386 39.5006 34.2838 39.3813C33.6607 39.3725 33.0505 39.2017 32.5129 38.8858C31.9753 38.5699 31.5287 38.1196 31.2167 37.5789C30.9047 37.0382 30.7379 36.4256 30.7327 35.801C30.7275 35.1764 30.8841 34.5611 31.1871 34.0153C31.8869 32.5031 33.0488 31.2535 34.5045 30.4475C35.7123 29.7284 37.0863 29.3373 38.491 29.313C38.7455 29.3128 38.9998 29.3271 39.2527 29.3558C39.8752 29.3658 40.4844 29.5374 41.021 29.8538C41.5577 30.1702 42.0033 30.6206 42.3145 31.1611C42.6257 31.7016 42.7918 32.3138 42.7967 32.9378C42.8015 33.5618 42.6449 34.1765 42.3422 34.7217V34.7146ZM56.4373 7.59941L45.0473 9.50461V4.96639L56.4373 3.06119V7.59941Z" fill="white" stroke="white" stroke-width="0.8"/>
</g>
<defs>
<clipPath id="clip0_322_238">
<rect width="59" height="42" fill="white"/>
</clipPath>
</defs>
</svg>
