<svg width="66" height="60" viewBox="0 0 66 60" fill="none" xmlns="http://www.w3.org/2000/svg">
<g clip-path="url(#clip0_2:10955)">
<path d="M16.0046 1.62799H6.81713C6.41752 1.63436 6.02609 1.7413 5.67951 1.9388C5.33292 2.13631 5.04252 2.4179 4.83552 2.75721L0.284445 10.5866C0.0976642 10.9358 0 11.3252 0 11.7205C0 12.1159 0.0976642 12.5052 0.284445 12.8545L4.83552 20.6932C5.02992 21.0436 5.31755 21.3341 5.667 21.5333C6.01645 21.7324 6.4143 21.8324 6.81713 21.8225H15.9193C16.3208 21.8253 16.7158 21.7223 17.064 21.5239C17.4122 21.3255 17.701 21.0388 17.9009 20.6932L22.452 12.8545C22.6387 12.5052 22.7364 12.1159 22.7364 11.7205C22.7364 11.3252 22.6387 10.9358 22.452 10.5866L17.9009 2.75721C17.7104 2.42208 17.4355 2.14182 17.1031 1.94386C16.7707 1.7459 16.3922 1.63706 16.0046 1.62799Z" fill="#FF2129"/>
<path d="M35.7828 0.470492C30.3302 0.457439 24.9794 1.93559 20.3177 4.74269C15.6559 7.54978 11.8635 11.5773 9.35673 16.3832C6.84992 21.1891 5.7256 26.5875 6.1072 31.9859C6.48879 37.3844 8.36155 42.5741 11.5199 46.9855L10.9889 48.0395C9.3771 51.2578 7.88852 54.175 6.18187 57.4498C6.06081 57.7067 6.01786 57.9931 6.05828 58.2739C6.09869 58.5547 6.22072 58.8177 6.40942 59.0307C6.60613 59.236 6.85983 59.3787 7.13835 59.4407C7.41686 59.5026 7.70765 59.4812 7.97385 59.3789L19.3515 54.6738C24.243 57.7968 29.9382 59.4533 35.7543 59.4448C43.6452 59.4448 51.2129 56.3336 56.7926 50.7958C62.3723 45.2579 65.507 37.747 65.507 29.9153C65.507 22.0836 62.3723 14.5726 56.7926 9.03478C51.2129 3.49693 43.6452 0.385803 35.7543 0.385803L35.7828 0.470492ZM35.7828 3.29358C42.9218 3.29358 49.7684 6.10828 54.8165 11.1185C59.8645 16.1287 62.7005 22.9239 62.7005 30.0094C62.7005 37.0949 59.8645 43.8901 54.8165 48.9003C49.7684 53.9105 42.9218 56.7252 35.7828 56.7252C30.2597 56.7367 24.861 55.0972 20.2902 52.0201C20.096 51.8936 19.8739 51.8155 19.6428 51.7926C19.4116 51.7696 19.1784 51.8025 18.9628 51.8883L10.4295 55.3795C11.4725 53.3187 12.4206 51.4931 13.5299 49.2723C13.7954 48.7359 14.0135 48.3312 14.1652 47.9736C14.241 47.8137 14.2979 47.6725 14.3453 47.5596C14.456 47.313 14.5036 47.043 14.4837 46.7738C14.4639 46.5045 14.3773 46.2443 14.2316 46.0163C11.2388 42.045 9.41848 37.3256 8.97413 32.386C8.52978 27.4465 9.47898 22.4816 11.7155 18.047C13.9521 13.6123 17.3878 9.88275 21.6382 7.27555C25.8886 4.66835 30.7861 3.28637 35.7828 3.28419V3.29358ZM35.7828 8.93975C33.2935 8.93679 30.8475 9.58582 28.6918 10.8213C26.5362 12.0567 24.7471 13.8348 23.5053 15.9761C22.2636 18.1174 21.6131 20.5459 21.6196 23.0165C21.6261 25.4871 22.2893 27.9122 23.5423 30.047C23.8173 30.4987 24.1112 30.9222 24.3577 31.2986C25.9032 33.7359 27.278 35.4391 27.278 39.1656C27.292 39.5355 27.4464 39.8865 27.7101 40.1482C27.9739 40.41 28.3275 40.5632 28.7002 40.5771H42.8654C43.247 40.5723 43.6117 40.4204 43.8825 40.1534C44.1532 39.8865 44.3087 39.5255 44.316 39.1468C44.316 35.3827 45.7003 33.7171 47.2458 31.2798C47.4354 30.9598 47.6819 30.6211 47.8621 30.3388C49.1933 28.2091 49.9254 25.7644 49.9824 23.2589C50.0394 20.7533 49.4192 18.2784 48.1863 16.0912C46.9533 13.9041 45.1526 12.0847 42.9713 10.8221C40.7901 9.55945 38.3079 8.89974 35.7828 8.91152V8.93975ZM35.7828 11.7628C37.2717 11.7591 38.7468 12.0474 40.1231 12.6113C41.4995 13.1751 42.75 14.0032 43.8029 15.0482C44.8557 16.0932 45.6902 17.3343 46.2582 18.7003C46.8263 20.0664 47.1168 21.5303 47.113 23.0081C47.1133 24.9944 46.5763 26.9443 45.5581 28.6543C45.3116 29.0401 45.0746 29.3883 44.8565 29.7177C43.5575 31.7785 42.0121 34.1311 41.6044 37.7635H29.9517C29.582 34.1311 27.9986 31.7785 26.6996 29.7177C26.3962 29.2754 26.0928 28.7766 25.8463 28.3814C24.9246 26.7349 24.4416 24.8822 24.443 22.9987C24.4355 21.5178 24.7236 20.05 25.2905 18.6801C25.8575 17.3102 26.6922 16.0653 27.7464 15.0172C28.8007 13.9691 30.0536 13.1386 31.4329 12.5735C32.8122 12.0085 34.2906 11.7202 35.7828 11.7252V11.7628ZM39.8788 17.362C39.6081 17.3984 39.3543 17.5129 39.1487 17.6913L32.0661 23.3375C31.869 23.5026 31.7201 23.7172 31.6351 23.9589C31.55 24.2005 31.5319 24.4604 31.5825 24.7114C31.6422 24.9617 31.7674 25.1919 31.9456 25.3786C32.1237 25.5654 32.3485 25.702 32.597 25.7748L35.8018 26.6311L32.6539 29.7365C32.5042 29.862 32.3823 30.0169 32.2957 30.1914C32.2092 30.3659 32.1599 30.5563 32.1509 30.7506C32.142 30.9449 32.1737 31.1389 32.2439 31.3205C32.3141 31.5021 32.4213 31.6673 32.5589 31.8058C32.6965 31.9443 32.8614 32.0531 33.0434 32.1254C33.2253 32.1976 33.4204 32.2317 33.6163 32.2257C33.8121 32.2196 34.0046 32.1734 34.1817 32.0899C34.3587 32.0065 34.5164 31.8877 34.645 31.7409L39.5753 26.8193C39.7321 26.6364 39.8416 26.4183 39.8943 26.184C39.947 25.9496 39.9413 25.706 39.8778 25.4743C39.8143 25.2426 39.6949 25.0298 39.5298 24.8542C39.3648 24.6786 39.1591 24.5456 38.9306 24.4667L36.0862 23.7139L40.9596 19.8463C41.2166 19.6619 41.4035 19.397 41.4904 19.0944C41.5773 18.7917 41.5591 18.4688 41.4387 18.1777C41.3183 17.8866 41.1027 17.6441 40.8266 17.4893C40.5506 17.3345 40.2301 17.2764 39.9167 17.3243L39.8788 17.362ZM29.2785 42.6945C28.9014 42.7119 28.5466 42.8774 28.2923 43.1545C28.0381 43.4316 27.9051 43.7975 27.9227 44.1719C27.9403 44.5462 28.107 44.8983 28.3862 45.1507C28.6654 45.4031 29.0341 45.535 29.4113 45.5175H42.1543C42.5315 45.5175 42.8932 45.3688 43.1599 45.1041C43.4266 44.8394 43.5765 44.4804 43.5765 44.106C43.5765 43.7316 43.4266 43.3726 43.1599 43.1079C42.8932 42.8432 42.5315 42.6945 42.1543 42.6945H29.2785ZM32.123 48.3406C31.9362 48.3493 31.753 48.3944 31.5838 48.4733C31.4145 48.5522 31.2626 48.6635 31.1367 48.8007C31.0108 48.9379 30.9134 49.0983 30.85 49.2729C30.7866 49.4474 30.7584 49.6327 30.7671 49.8181C30.7758 50.0034 30.8213 50.1853 30.9008 50.3532C30.9803 50.5212 31.0924 50.6719 31.2306 50.7969C31.3688 50.9218 31.5305 51.0186 31.7064 51.0815C31.8823 51.1444 32.0689 51.1724 32.2557 51.1637H39.3383C39.7155 51.1637 40.0772 51.015 40.344 50.7503C40.6107 50.4856 40.7605 50.1265 40.7605 49.7522C40.7605 49.3778 40.6107 49.0188 40.344 48.7541C40.0772 48.4894 39.7155 48.3406 39.3383 48.3406H32.123Z" fill="white" stroke="white" stroke-miterlimit="10"/>
</g>
<defs>
<clipPath id="clip0_2:10955">
<rect width="66" height="60" fill="white"/>
</clipPath>
</defs>
</svg>
