<svg width="81" height="81" viewBox="0 0 81 81" fill="none" xmlns="http://www.w3.org/2000/svg">
<path d="M16.9 2.3999H7.2C6.3 2.3999 5.6 2.8999 5.1 3.5999L0.3 11.8999C-0.1 12.5999 -0.1 13.5999 0.3 14.2999L5.1 22.5999C5.6 23.3999 6.3 23.7999 7.2 23.7999H16.8C17.7 23.7999 18.5 23.2999 18.9 22.5999L23.7 14.2999C24.1 13.5999 24.1 12.5999 23.7 11.8999L18.9 3.5999C18.5 2.8999 17.7 2.3999 16.9 2.3999Z" fill="#FF2129"/>
<path d="M67.5 64.6C70.3 61.2 72 56.8 72 52C72 41 63 32 52 32C50.6 32 49.3 32.1 48 32.4V0H16V30C14.3 28.7 12.3 28 10 28C4.5 28 0 32.5 0 38C0 43.5 4.5 48 10 48C15.5 48 20 43.5 20 38V16H44V30C42.3 28.7 40.3 28 38 28C32.5 28 28 32.5 28 38C28 41.6 29.9 44.8 32.8 46.5C32.3 48.2 32 50.1 32 52C32 63 41 72 52 72C56.8 72 61.2 70.3 64.7 67.5L77.3 80.1L80.1 77.3L67.5 64.6ZM10 44C6.7 44 4 41.3 4 38C4 34.7 6.7 32 10 32C13.3 32 16 34.7 16 38C16 41.3 13.3 44 10 44ZM20 12V4H44V12H20ZM32 38C32 34.7 34.7 32 38 32C39.9 32 41.6 32.9 42.7 34.3C39.1 36.2 36.2 39.1 34.3 42.7C32.9 41.6 32 39.9 32 38ZM52 68C43.2 68 36 60.8 36 52C36 43.2 43.2 36 52 36C60.8 36 68 43.2 68 52C68 60.8 60.8 68 52 68ZM52 60V64C45.4 64 40 58.6 40 52H44C44 56.4 47.6 60 52 60Z" fill="white"/>
</svg>
