<svg width="71" height="63" viewBox="0 0 71 63" fill="none" xmlns="http://www.w3.org/2000/svg">
<g clip-path="url(#clip0)">
<path d="M16.9 9.39999H7.2C6.3 9.39999 5.6 9.89999 5.1 10.6L0.3 18.9C-0.1 19.6 -0.1 20.6 0.3 21.3L5.1 29.6C5.6 30.4 6.3 30.8 7.2 30.8H16.8C17.7 30.8 18.5 30.3 18.9 29.6L23.7 21.3C24.1 20.6 24.1 19.6 23.7 18.9L18.9 10.6C18.5 9.79999 17.7 9.39999 16.9 9.39999Z" fill="#FF2129"/>
<path d="M51.3997 10.8C48.8997 9.20001 45.4997 9.90001 43.8997 12.4C42.4997 14.6 42.7997 17.4 44.5997 19.2L50.3997 25C50.6997 25.3 50.9997 25.4 51.3997 25.4C51.7997 25.4 52.0997 25.3 52.3997 25L58.1997 19.2C60.2997 17.1 60.2997 13.6 58.1997 11.5C56.3997 9.70001 53.5997 9.40001 51.3997 10.8ZM56.1997 17.3L51.3997 22.1L46.5997 17.3C45.4997 16.2 45.4997 14.5 46.5997 13.5C47.6997 12.4 49.3997 12.4 50.3997 13.5C50.7997 13.9 51.3997 14 51.8997 13.8C52.0997 13.7 52.2997 13.6 52.3997 13.5C53.4997 12.4 55.1997 12.4 56.1997 13.5C57.1997 14.6 57.2997 16.2 56.1997 17.3Z" fill="black" stroke="black" stroke-width="0.5" stroke-miterlimit="10"/>
<path d="M61.7 0.200012H41.1C36.5 0.200012 32.8 3.90001 32.8 8.50001V18.7H20.3C15.7 18.7 12 22.4 12 27V44.2C12 48.6 15.4 52.2 19.7 52.5V60.3C19.7 61.1 20.3 61.7 21.1 61.7C21.4 61.7 21.7 61.6 21.9 61.4L33.2 52.5H41C45.6 52.5 49.3 48.8 49.3 44.2V34.4L60.1 43C60.7 43.5 61.6 43.4 62 42.8C62.2 42.6 62.3 42.3 62.3 42V34.2C66.6 33.9 70 30.3 70 25.9V8.60001C70.1 4.00001 66.3 0.300012 61.7 0.200012ZM67.2 7.30001H64.5V3.70001C65.8 4.50001 66.8 5.80001 67.2 7.30001ZM20.3 21.5H32.7V25.8H14.9C15.5 23.3 17.7 21.5 20.3 21.5ZM46.6 44.3C46.6 47.4 44.1 49.9 41 49.9H32.8C32.5 49.9 32.2 50 32 50.2L22.5 57.6V51.2C22.5 50.4 21.9 49.8 21.1 49.8H20.3C17.2 49.8 14.7 47.3 14.7 44.2V28.6H33.2C34.4 31.9 37.5 34.2 41 34.2H46.5V44.3H46.6ZM61.7 31.4H61C60.2 31.4 59.6 32 59.6 32.8V39.2L50.1 31.8C49.9 31.6 49.6 31.5 49.3 31.5H41.1C38 31.5 35.5 29 35.5 25.9V8.60001C35.5 5.50001 38 3.00001 41.1 3.00001H61.7V8.70001C61.7 9.50001 62.3 10.1 63.1 10.1H67.3V25.9C67.3 28.9 64.8 31.4 61.7 31.4Z" fill="black" stroke="black" stroke-width="0.5" stroke-miterlimit="10"/>
<path d="M23.8004 35.6C23.6004 35.9 23.4004 36.2 23.4004 36.6C23.4004 37.4 24.0004 38 24.8004 38C25.2004 38 25.5004 37.9 25.8004 37.6C25.9004 37.5 26.0004 37.3 26.1004 37.1C26.2004 36.9 26.2004 36.8 26.2004 36.6C26.2004 35.8 25.6004 35.2 24.8004 35.2C24.5004 35.2 24.1004 35.3 23.8004 35.6Z" fill="black" stroke="black" stroke-width="0.5" stroke-miterlimit="10"/>
<path d="M31.3998 35.4C31.2998 35.3 31.2998 35.3 31.1998 35.3C31.0998 35.3 30.9998 35.2 30.8998 35.2C30.6998 35.2 30.4998 35.2 30.3998 35.2C30.2998 35.2 30.1998 35.2 30.0998 35.3C29.9998 35.3 29.8998 35.4 29.8998 35.4C29.7998 35.5 29.7998 35.5 29.6998 35.6C29.3998 35.9 29.2998 36.2 29.2998 36.6C29.2998 37 29.3998 37.3 29.6998 37.6C29.7998 37.7 29.9998 37.8 30.0998 37.9C30.3998 38 30.7998 38 31.1998 37.9C31.3998 37.8 31.4998 37.7 31.5998 37.6C31.8998 37.3 31.9998 37 31.9998 36.6C31.9998 36.2 31.7998 35.9 31.5998 35.6C31.5998 35.5 31.4998 35.5 31.3998 35.4Z" fill="black" stroke="black" stroke-width="0.5" stroke-miterlimit="10"/>
<path d="M37.2002 35.4C37.1002 35.3 37.0002 35.3 37.0002 35.3C36.9002 35.3 36.8002 35.2 36.8002 35.2C36.3002 35.1 35.9002 35.2 35.6002 35.6C35.5002 35.7 35.4002 35.9 35.3002 36.1C35.2002 36.3 35.2002 36.4 35.2002 36.6C35.2002 37 35.3002 37.3 35.6002 37.6C36.1002 38.1 37.0002 38.1 37.5002 37.6C37.8002 37.3 37.9002 37 37.9002 36.6C37.9002 36.2 37.8002 35.9 37.5002 35.6C37.4002 35.5 37.3002 35.5 37.2002 35.4Z" fill="black" stroke="black" stroke-width="0.5" stroke-miterlimit="10"/>
</g>
<defs>
<clipPath id="clip0">
<rect width="70.3" height="62.1" fill="white"/>
</clipPath>
</defs>
</svg>
