<svg width="83" height="59" viewBox="0 0 83 59" fill="none" xmlns="http://www.w3.org/2000/svg">
<g clip-path="url(#clip0)">
<path d="M16.9 0H7.2C6.3 0 5.6 0.5 5.1 1.2L0.3 9.5C-0.1 10.2 -0.1 11.2 0.3 11.9L5.1 20.2C5.6 21 6.3 21.4 7.2 21.4H16.8C17.7 21.4 18.5 20.9 18.9 20.2L23.7 11.9C24.1 11.2 24.1 10.2 23.7 9.5L18.9 1.2C18.5 0.5 17.7 0 16.9 0Z" fill="#FF2129"/>
<path d="M50.5 21.6H13.6C12.7 21.6 12 20.9 12 20C12 19.1 12.7 18.4 13.6 18.4H50.4C51.3 18.4 52 19.1 52 20C52.1 20.9 51.3 21.6 50.5 21.6Z" fill="black" stroke="black" stroke-width="0.8008"/>
<path d="M50.5 10.4H13.6C12.7 10.4 12 9.69998 12 8.79998C12 7.89998 12.7 7.19998 13.6 7.19998H50.4C51.3 7.19998 52 7.89998 52 8.79998C52 9.69998 51.3 10.4 50.5 10.4Z" fill="black" stroke="black" stroke-width="0.8008"/>
<path d="M50.5 32.8H13.6C12.7 32.8 12 32.1 12 31.2C12 30.3 12.7 29.6 13.6 29.6H50.4C51.3 29.6 52 30.3 52 31.2C52.1 32.1 51.3 32.8 50.5 32.8Z" fill="black" stroke="black" stroke-width="0.8008"/>
<path d="M31.2 44H13.6C12.7 44 12 43.3 12 42.4C12 41.5 12.7 40.8 13.6 40.8H31.2C32.1 40.8 32.8 41.5 32.8 42.4C32.8 43.3 32.1 44 31.2 44Z" fill="black" stroke="black" stroke-width="0.8008"/>
<path d="M81.9004 1.19999C81.5004 0.899988 81.1004 0.799988 80.6004 0.799988L61.4004 3.99999C60.6004 4.09999 60.1004 4.79999 60.1004 5.59999V39.7C58.9004 38.8 57.3004 38.2 55.6004 38C52.8004 37.7 49.7004 38.3 46.9004 39.9C44.1004 41.5 42.0004 43.8 40.9004 46.4C39.7004 49.2 39.8004 52 41.1004 54.3C42.4004 56.6 44.8004 58 47.8004 58.4C48.3004 58.5 48.8004 58.5 49.2004 58.5C51.6004 58.5 54.1004 57.8 56.4004 56.5C59.2004 54.9 61.3004 52.6 62.4004 50C63.0004 48.7 63.2004 47.4 63.2004 46.1V16.6L81.1004 13.6C81.9004 13.5 82.4004 12.8 82.4004 12V2.39999C82.5004 1.89999 82.3004 1.49999 81.9004 1.19999ZM59.5004 48.7C58.7004 50.7 57.0004 52.5 54.8004 53.7C52.6004 54.9 50.3004 55.5 48.1004 55.2C46.1004 55 44.6004 54.1 43.8004 52.7C43.0004 51.3 43.0004 49.5 43.8004 47.7C44.6004 45.7 46.3004 43.9 48.5004 42.7C50.3004 41.7 52.3004 41.1 54.1004 41.1C54.5004 41.1 54.8004 41.1 55.2004 41.2C57.2004 41.4 58.7004 42.3 59.5004 43.7C60.2004 45.1 60.3004 46.8 59.5004 48.7ZM79.3004 10.7L63.3004 13.4V6.99999L79.3004 4.29999V10.7Z" fill="black" stroke="black" stroke-width="0.8008"/>
</g>
<defs>
<clipPath id="clip0">
<rect width="82.9" height="58.9" fill="white"/>
</clipPath>
</defs>
</svg>
