<svg width="76" height="59" viewBox="0 0 76 59" fill="none" xmlns="http://www.w3.org/2000/svg">
<g clip-path="url(#clip0_2_12385)">
<path d="M16.9 0H7.21002C6.78914 0.00952595 6.37736 0.124341 6.01227 0.333961C5.64718 0.54358 5.34043 0.841323 5.12003 1.2L0.320038 9.53C0.123069 9.89932 0.0200195 10.3114 0.0200195 10.73C0.0200195 11.1486 0.123069 11.5607 0.320038 11.93L5.12003 20.26C5.32761 20.6301 5.63151 20.937 5.99948 21.1483C6.36746 21.3596 6.78577 21.4673 7.21002 21.46H16.82C17.2418 21.4613 17.6564 21.351 18.0217 21.1402C18.387 20.9294 18.69 20.6258 18.9 20.26L23.7 11.93C23.897 11.5607 24 11.1486 24 10.73C24 10.3114 23.897 9.89932 23.7 9.53L18.9 1.2C18.6992 0.843866 18.4092 0.546024 18.0586 0.335662C17.708 0.125299 17.3088 0.00963391 16.9 0Z" fill="#FF2129"/>
<path d="M14.76 6.70996C13.2967 6.71786 11.8957 7.30334 10.862 8.33899C9.82819 9.37464 9.24524 10.7767 9.23999 12.24V47.76H6.07999C5.66885 47.7792 5.27954 47.9505 4.98758 48.2406C4.69562 48.5307 4.52186 48.919 4.5 49.33V52.49C4.50526 54.1628 5.17143 55.7657 6.35336 56.9495C7.53529 58.1333 9.13719 58.8021 10.81 58.81H69.24C70.9137 58.8021 72.5167 58.1337 73.7002 56.9502C74.8837 55.7666 75.5521 54.1637 75.56 52.49V49.33C75.5426 48.9174 75.3703 48.5266 75.0774 48.2356C74.7845 47.9445 74.3926 47.7747 73.98 47.76H70.82V12.23C70.8121 10.7667 70.2266 9.36571 69.191 8.33193C68.1553 7.29815 66.7533 6.71521 65.29 6.70996H14.76ZM14.76 9.86996H65.29C65.6027 9.86454 65.9133 9.92215 66.2033 10.0393C66.4933 10.1565 66.7567 10.3309 66.9779 10.5521C67.1991 10.7732 67.3734 11.0366 67.4906 11.3266C67.6078 11.6166 67.6654 11.9272 67.66 12.24V47.76H12.39V12.23C12.3846 11.9172 12.4422 11.6066 12.5594 11.3166C12.6765 11.0266 12.8509 10.7632 13.0721 10.5421C13.2932 10.3209 13.5567 10.1465 13.8467 10.0293C14.1367 9.91215 14.4473 9.85454 14.76 9.85996V9.86996ZM7.64999 50.98H72.4V52.56C72.4054 52.9764 72.3273 53.3898 72.1704 53.7756C72.0135 54.1614 71.7809 54.5119 71.4864 54.8064C71.1919 55.1009 70.8414 55.3335 70.4556 55.4904C70.0698 55.6473 69.6565 55.7253 69.24 55.72H10.81C10.394 55.7254 9.98113 55.6472 9.59586 55.4902C9.21058 55.3332 8.86074 55.1005 8.56702 54.8058C8.2733 54.5112 8.04166 54.1606 7.88586 53.7748C7.73007 53.3891 7.65328 52.9759 7.66 52.56L7.64999 50.98Z" fill="white"/>
<path d="M33.8448 30.4283C32.1809 29.4323 29.5774 29.9223 28.8935 30.0752C28.8712 30.0771 28.85 30.0803 28.8264 30.0854C28.6268 29.9876 28.2289 29.7035 27.927 29.4886C27.6404 29.2845 27.3333 29.067 27.016 28.8623C27.0084 28.4702 27.0647 28.0378 27.2271 27.867C27.2527 27.8388 27.3148 27.7717 27.5348 27.7972C27.6321 27.8184 27.8912 27.977 28.0466 28.0723C28.4937 28.3461 28.9997 28.6551 29.5077 28.3922C29.6727 28.3045 29.9574 28.0832 29.9874 27.5868C30.038 26.7418 30.7621 25.9812 31.4005 25.312C31.9698 24.7146 32.4611 24.199 32.4969 23.5778C32.5667 22.3618 30.8107 21.3236 30.0527 20.934L29.7437 20.7766L29.4309 20.9205C29.1046 21.0696 28.7304 21.1995 28.4458 21.2679C28.5532 21.0562 28.6991 20.8188 28.781 20.6858C29.0842 20.1926 29.3228 19.8024 29.0791 19.3699L28.8283 18.9855H18.5663L18.3527 19.2682C17.871 19.9098 16.7797 21.5174 17.0394 22.5767C17.129 22.9381 17.3599 23.2254 17.6912 23.384L17.9324 23.4998L18.1876 23.4281C19.1472 23.1627 20.3185 22.8921 20.8078 22.8364C21.0611 23.2087 21.5403 24.0864 21.8461 24.6448C22.2471 25.3798 22.5017 25.8423 22.6706 26.0765C22.7378 26.1692 22.86 26.4136 22.9796 26.6503C23.4619 27.6066 24.1886 29.0517 25.4136 29.5935C25.9625 29.8353 26.5695 30.2671 27.1037 30.6477C27.4747 30.9106 27.7933 31.1384 28.0818 31.2964C27.872 31.8996 27.6673 32.76 28.0447 33.5743C28.3089 34.1398 28.6441 34.5147 28.9147 34.8166C29.2684 35.2087 29.3778 35.3495 29.3516 35.6623C29.3375 35.8356 29.303 36.0825 29.262 36.3774C28.9396 38.713 28.733 41.0677 30.013 41.9498C30.1192 42.0234 30.3297 42.136 30.6124 42.136C30.8216 42.136 31.0698 42.0746 31.3436 41.8852C33.0138 40.735 35.5803 33.8379 35.1984 32.2668C35.0039 31.4672 34.5478 30.8486 33.8448 30.4283ZM25.6477 28.08C25.0471 27.5932 24.559 26.6272 24.2494 26.0106C24.085 25.685 23.9564 25.4285 23.824 25.2462C23.698 25.0722 23.3762 24.483 23.0928 23.9629C22.0591 22.072 21.8 21.6818 21.4661 21.5097C21.381 21.4643 21.2742 21.4086 20.9863 21.4086C20.6018 21.4086 19.8956 21.5097 18.4915 21.8737C18.6265 21.4937 18.9303 20.9269 19.2866 20.4062H27.2943C26.9969 20.9365 26.7583 21.5231 26.9553 22.0502C27.0557 22.3183 27.2617 22.5281 27.5355 22.6407C28.1451 22.8927 29.0944 22.5972 29.6912 22.3554C30.3885 22.7603 31.0256 23.281 31.0813 23.4723C31.0365 23.6322 30.6367 24.0531 30.3712 24.332C29.775 24.9576 28.9972 25.772 28.694 26.8006C28.3741 26.6081 28.046 26.4225 27.6967 26.3848C26.9271 26.3036 26.4525 26.6157 26.1921 26.8914C25.878 27.2241 25.7207 27.6591 25.6477 28.08ZM30.6693 40.609C30.2196 39.8471 30.5523 37.4176 30.67 36.5713C30.7148 36.247 30.7506 35.9738 30.7672 35.7819C30.8472 34.8403 30.361 34.301 29.9714 33.8667C29.7322 33.6005 29.507 33.3485 29.333 32.9749C29.1219 32.5233 29.3874 31.8439 29.546 31.4384C29.5518 31.4237 29.5576 31.4058 29.5646 31.3891C30.5152 31.2177 32.1662 31.0789 33.1162 31.6495C33.4833 31.8708 33.7136 32.1823 33.8153 32.6026C34.1173 33.9063 31.6404 39.6386 30.6693 40.609Z" fill="white"/>
<path d="M37.1854 20.8968L38.782 18.3131L35.0718 16L30.0413 18.7699L33.7649 22.5479L37.1854 20.8968ZM35.027 17.6459L36.8284 18.7699L36.1932 19.7953L34.063 20.8246L32.371 19.1095L35.027 17.6459Z" fill="white"/>
<path d="M61.2473 19.7454L61.0529 19.6801C60.7151 19.5676 57.722 18.5869 56.3722 18.5869C56.2129 18.5869 56.0767 18.5997 55.9526 18.6247C55.6071 18.6957 54.6687 18.6989 53.7616 18.7008C52.2507 18.7046 50.5389 18.7097 49.3618 18.9592C48.6838 19.1031 47.9417 19.3904 47.2214 19.668C46.2619 20.039 45.2691 20.4216 44.5462 20.4216C44.3057 20.4216 44.117 20.38 43.9718 20.2943C43.3596 19.9322 42.8235 19.7627 42.2817 19.7627C41.7917 19.7627 41.3823 19.9028 40.9844 20.0377C40.7855 20.1049 40.5776 20.1766 40.3396 20.2328C38.7269 20.6224 38.6323 22.5965 38.6009 23.2464L38.5964 23.3238C38.5536 24.1535 39.4037 24.9934 39.6647 25.2314L39.9251 25.4706L40.2737 25.4048C40.2903 25.4016 41.9938 25.0849 43.0295 25.0849C43.0717 25.0849 43.1107 25.0868 43.1459 25.0875C43.0839 25.2001 43.0039 25.3293 42.9387 25.4387C42.7851 25.6875 42.5984 25.9914 42.418 26.3547C42.393 26.3573 42.3578 26.3592 42.313 26.3592C41.9132 26.3592 41.2742 26.1999 40.6562 26.0483C39.9411 25.8698 39.199 25.6869 38.6041 25.6869C37.3861 25.6869 37.1443 26.459 37.0976 26.8274C36.7599 27.9456 35.8829 31.297 37.1738 32.4113L37.3535 32.5674L37.5915 32.5815C38.3559 32.632 39.4063 32.6723 40.078 32.6934C40.3946 38.1391 40.6179 38.5351 40.7042 38.6886C40.9256 39.0827 41.4072 39.3015 42.0578 39.3015C42.9438 39.3015 43.9558 38.8901 44.2136 37.9722C44.2743 37.763 44.4375 37.2653 44.6454 36.6243C46.6751 30.3809 46.5491 30.3048 45.9446 29.9395C45.7501 29.8231 45.5211 29.7732 45.232 29.7118C45.1168 29.6881 44.9288 29.6472 44.7733 29.6005C45.1558 29.3785 45.9695 29.1143 46.741 28.9774L46.9252 28.9455C47.4325 30.4539 47.776 30.9483 48.3083 31.0449L48.4573 31.0596C48.9409 31.0596 49.3043 30.6822 49.9068 30.0592C50.1263 29.8314 50.4915 29.4534 50.7423 29.2583C50.8357 29.4361 50.9387 29.6907 51.0122 29.8647C51.325 30.6279 51.6807 31.4921 52.5098 31.4921L52.6051 31.4882C52.9607 31.455 53.7879 31.3776 55.3007 26.8191L55.3941 26.5409L55.0564 25.8641L58.2727 23.6769L57.8608 23.0878C57.8122 23.0187 57.7655 22.9471 57.7188 22.8741C61.0708 22.8402 61.4309 22.4743 61.6503 22.2517C62.3182 21.5756 61.9203 20.5648 61.3785 19.9034L61.2473 19.7454ZM57.2077 21.4553L56.7241 21.4534C56.4228 21.4534 56.1509 21.6152 56.0153 21.8756C55.8829 22.1283 55.8074 22.4513 56.3044 23.2976L53.2275 25.3881L53.8563 26.649C53.4431 27.8541 52.8987 29.1674 52.5258 29.7988C52.4541 29.6395 52.3799 29.4598 52.3242 29.3248C52.0191 28.5828 51.6711 27.7396 50.8555 27.73C50.1794 27.73 49.5505 28.3819 48.8821 29.0734C48.7989 29.161 48.6978 29.2659 48.5987 29.3651C48.4765 29.0824 48.3019 28.6167 48.0626 27.8445L48.0223 27.7153C47.902 27.3366 47.5796 27.0916 47.2029 27.0916C46.8824 27.0916 46.5574 27.2714 46.235 27.629C45.1104 27.8516 43.4632 28.3486 43.2105 29.367C43.1287 29.6971 43.1754 30.0157 43.3468 30.2888C43.6692 30.805 44.321 30.9727 44.8341 31.0833C44.5897 32.1951 43.7037 34.9202 43.2924 36.1861C43.0743 36.8533 42.9073 37.3715 42.8453 37.5871C42.8126 37.7054 42.4806 37.8826 42.0572 37.8826C42.0105 37.8826 41.9695 37.8794 41.935 37.8756C41.7968 37.0696 41.5953 34.3765 41.4591 31.9674L41.4239 31.3149L40.7714 31.2957C40.7522 31.2957 39.1632 31.2516 38.0047 31.1863C37.7757 30.6035 37.9747 28.8098 38.4775 27.1786L38.4973 27.1153C38.5235 27.1127 38.5606 27.1102 38.6041 27.1102C39.0263 27.1102 39.6814 27.2727 40.3153 27.43C41.0484 27.6117 41.7405 27.7838 42.313 27.7838C43.1408 27.7838 43.4946 27.4019 43.6481 27.0827C43.8112 26.7353 43.9916 26.443 44.149 26.1833C44.5238 25.573 44.9102 24.9442 44.5238 24.238C44.2494 23.7339 43.6148 23.6661 43.0301 23.6661C42.1736 23.6661 40.987 23.8439 40.3876 23.9437C40.1925 23.723 40.0332 23.4921 40.0166 23.4006L40.0223 23.3162C40.0421 22.8888 40.0952 21.7566 40.6735 21.6178C40.955 21.5487 41.2057 21.4655 41.4405 21.3856C41.7693 21.2736 42.0271 21.186 42.2817 21.186C42.4544 21.186 42.7442 21.2212 43.2489 21.5186C43.6142 21.7361 44.0511 21.8449 44.5462 21.8449C45.5352 21.8449 46.654 21.4124 47.7338 20.9947C48.4311 20.7248 49.0893 20.4702 49.6586 20.3499C50.6879 20.1318 52.3933 20.1273 53.7648 20.1235C54.8741 20.1215 55.7517 20.1183 56.2392 20.0173C56.2456 20.0166 56.2839 20.0096 56.3716 20.0096C57.2492 20.0096 59.396 20.641 60.3882 20.9595C60.4528 21.0587 60.5072 21.1655 60.5417 21.25C60.1496 21.3421 59.16 21.4553 57.2077 21.4553Z" fill="white"/>
<path d="M58.263 32.9468L58.0666 32.973C57.7173 33.0651 57.5305 33.3395 57.3501 33.6037C57.2727 33.717 57.1109 33.9517 57.0859 33.985C57.084 33.985 56.9388 33.9466 56.6452 33.5916L56.2722 33.1374L52.5991 35.1435L53.425 38.4507L54.0557 38.365C54.0659 38.3643 55.0037 38.237 55.7656 38.237C56.2044 38.237 56.3618 38.2793 56.3733 38.2793C56.445 38.3272 56.6292 38.5223 56.7501 38.6516C57.1736 39.1013 57.6533 39.6111 58.254 39.6111C58.5745 39.6111 59.147 39.4691 59.3843 38.5134C59.7362 37.1054 59.4522 33.9709 58.9065 33.2749C58.6845 32.989 58.4088 32.9468 58.263 32.9468ZM58.0512 37.9524C57.9546 37.8564 57.8568 37.7522 57.7851 37.6773C57.5324 37.4086 57.3156 37.1758 57.0687 37.0389C56.7904 36.8847 56.3893 36.8156 55.7656 36.8156C55.3338 36.8156 54.8643 36.8508 54.499 36.8841L54.245 35.8631L55.9607 34.926C56.6932 35.5689 57.5164 35.4512 57.9821 35.0507C58.1101 35.9124 58.1894 37.1432 58.0512 37.9524Z" fill="white"/>
</g>
<defs>
<clipPath id="clip0_2_12385">
<rect width="75.56" height="58.81" fill="white"/>
</clipPath>
</defs>
</svg>
