<svg width="76" height="54" viewBox="0 0 76 54" fill="none" xmlns="http://www.w3.org/2000/svg">
<path d="M16.9 16.7622H7.2C6.3 16.7622 5.6 17.2622 5.1 17.9622L0.3 26.2622C-0.1 26.9622 -0.1 27.9622 0.3 28.6622L5.1 36.9622C5.6 37.7622 6.3 38.1622 7.2 38.1622H16.8C17.7 38.1622 18.5 37.6622 18.9 36.9622L23.7 28.6622C24.1 27.9622 24.1 26.9622 23.7 26.2622L18.9 17.9622C18.5 17.2622 17.7 16.7622 16.9 16.7622Z" fill="#FF2129"/>
<path d="M64.3 1C63.5 1 62.9 1.7 62.9 2.5C62.9 3.3 63.6 3.89996 64.4 3.89996H68.2L57.9 14.1C57.3 14.6 57.3 15.5 57.8 16.1C58.3 16.7 59.2 16.7 59.8 16.2L70 6V9.59998C70 10.4 70.6 11 71.4 11C72.2 11 72.8 10.4 72.8 9.59998V2.5C72.8 1.7 72.2 1.09998 71.4 1.09998H64.2C64.4 0.999976 64.3 1 64.3 1ZM13.3 7.5C12.6 7.6 12 8.19996 12 8.89996V52.1C12 52.9 12.6 53.5 13.4 53.5H18.2H73.2C74 53.5 74.6 52.9 74.6 52.1C74.6 51.3 74 50.7 73.2 50.7H18.2H14.8V8.89996C14.8 8.09996 14.2 7.49996 13.4 7.39996C13.4 7.49996 13.3 7.5 13.3 7.5ZM25.5 14.1C24.8 14.2 24.2 14.8 24.3 15.5V42.7C24.3 43.5 24.9 44.1 25.7 44.1C26.5 44.1 27.1 43.5 27.1 42.7V15.5C27.1 14.7 26.5 14.1 25.7 14C25.6 14.1 25.5 14.1 25.5 14.1ZM49.9 14.1C49.2 14.2 48.6 14.8 48.6 15.5V42.7C48.6 43.5 49.2 44.1 50 44.1C50.8 44.1 51.4 43.5 51.4 42.7V15.5C51.4 14.7 50.8 14.1 50 14C50.1 14.1 50 14.1 49.9 14.1ZM37.9 22.4C37.1 22.4 36.5 23.1 36.5 23.8V42.7C36.5 43.5 37.1 44.1 37.9 44.1C38.7 44.1 39.3 43.5 39.3 42.7V23.8C39.3 23 38.7 22.4 37.9 22.4ZM62.3 22.4C61.5 22.4 60.9 23.1 60.9 23.8V42.7C60.9 43.5 61.5 44.1 62.3 44.1C63.1 44.1 63.7 43.5 63.7 42.7V23.8C63.8 23 63.1 22.4 62.3 22.4Z" fill="white" stroke="white" stroke-miterlimit="10"/>
</svg>
