<svg width="61" height="52" viewBox="0 0 61 52" fill="none" xmlns="http://www.w3.org/2000/svg">
<g clip-path="url(#clip0_1125:1387)">
<path d="M15.2885 0H6.51211C6.13261 0.00590951 5.76078 0.108757 5.43134 0.298934C5.1019 0.489111 4.8256 0.760417 4.62822 1.08752L0.27172 8.70931C0.0932966 9.04846 0 9.42658 0 9.81054C0 10.1945 0.0932966 10.5726 0.27172 10.9118L4.62822 18.5153C4.81122 18.8565 5.08385 19.1402 5.41619 19.3353C5.74853 19.5303 6.12771 19.6292 6.51211 19.6211H15.216C15.5991 19.6223 15.9756 19.5205 16.3067 19.3261C16.6378 19.1318 16.9116 18.8519 17.0999 18.5153L21.4474 10.9118C21.6258 10.5726 21.7191 10.1945 21.7191 9.81054C21.7191 9.42658 21.6258 9.04846 21.4474 8.70931L17.0999 1.08752C16.9176 0.763162 16.6546 0.492314 16.337 0.301625C16.0194 0.110937 15.658 0.00697926 15.2885 0Z" fill="#FF2129"/>
<path d="M5.80571 45.6942C5.8082 45.9449 5.85736 46.1929 5.95063 46.4253C6.05093 46.6558 6.19563 46.864 6.37631 47.0376C6.55228 47.2126 6.76187 47.3495 6.9922 47.4397C7.22624 47.5308 7.47499 47.5773 7.72583 47.5768H39.3444C39.7447 48.8575 40.5392 49.9761 41.6126 50.7702C42.6859 51.5642 43.9822 51.9923 45.3131 51.9923C46.644 51.9923 47.9402 51.5642 49.0135 50.7702C50.0869 49.9761 50.8814 48.8575 51.2817 47.5768H59.0981C59.346 47.5774 59.5918 47.5309 59.8226 47.4397C60.0539 47.3419 60.2656 47.2025 60.4476 47.0285C60.621 46.849 60.7592 46.6382 60.8552 46.407C60.9527 46.176 61.0021 45.9271 61.0001 45.6759C60.9982 45.1696 60.7998 44.6841 60.4476 44.3234C60.2681 44.1462 60.0557 44.0064 59.8226 43.9121C59.5918 43.8209 59.346 43.7744 59.0981 43.775H51.2817C50.8864 42.4896 50.0938 41.3654 49.0198 40.5671C47.9459 39.7688 46.647 39.3381 45.3131 39.3381C43.9791 39.3381 42.6802 39.7688 41.6063 40.5671C40.5323 41.3654 39.7397 42.4896 39.3444 43.775H7.72583C7.4732 43.7702 7.22214 43.8162 6.98733 43.9103C6.75251 44.0045 6.53864 44.1449 6.3582 44.3234C6.1799 44.5042 6.03837 44.7184 5.94157 44.954C5.84587 45.1885 5.7996 45.4406 5.80571 45.6942ZM5.80571 28.6046C5.80733 28.8554 5.85652 29.1035 5.95063 29.3357C6.05093 29.5662 6.19563 29.7743 6.37631 29.948C6.55228 30.123 6.76187 30.2598 6.9922 30.3501C7.22624 30.4412 7.47499 30.4876 7.72583 30.4872H13.0243C13.4223 31.7713 14.2164 32.8937 15.2909 33.6906C16.3654 34.4874 17.664 34.9172 18.9975 34.9172C20.331 34.9172 21.6296 34.4874 22.7041 33.6906C23.7785 32.8937 24.5726 31.7713 24.9707 30.4872H59.0981C59.346 30.4878 59.5918 30.4413 59.8226 30.3501C60.0539 30.2523 60.2656 30.1129 60.4476 29.9389C60.6229 29.761 60.7615 29.5498 60.8552 29.3174C60.9527 29.0863 61.0021 28.8375 61.0001 28.5863C60.9982 28.0799 60.7998 27.5944 60.4476 27.2337C60.2681 27.0566 60.0557 26.9168 59.8226 26.8225C59.5918 26.7313 59.346 26.6848 59.0981 26.6854H24.9707C24.5726 25.4012 23.7785 24.2789 22.7041 23.482C21.6296 22.6852 20.331 22.2554 18.9975 22.2554C17.664 22.2554 16.3654 22.6852 15.2909 23.482C14.2164 24.2789 13.4223 25.4012 13.0243 26.6854H7.72583C7.47204 26.6849 7.22031 26.7313 6.98314 26.8225C6.75007 26.9168 6.53771 27.0566 6.3582 27.2337C6.1799 27.4145 6.03837 27.6287 5.94157 27.8643C5.84587 28.0989 5.7996 28.351 5.80571 28.6046ZM5.80571 11.5149C5.8082 11.7657 5.85736 12.0137 5.95063 12.2461C6.05093 12.4766 6.19563 12.6847 6.37631 12.8584C6.55228 13.0334 6.76187 13.1702 6.9922 13.2605C7.22624 13.3515 7.47499 13.398 7.72583 13.3975H27.4342C27.8322 14.6817 28.6264 15.804 29.7008 16.6009C30.7753 17.3978 32.0739 17.8276 33.4074 17.8276C34.7409 17.8276 36.0395 17.3978 37.114 16.6009C38.1885 15.804 38.9826 14.6817 39.3806 13.3975H59.0981C59.346 13.3982 59.5918 13.3517 59.8226 13.2605C60.0539 13.1626 60.2656 13.0233 60.4476 12.8492C60.6229 12.6714 60.7615 12.4601 60.8552 12.2278C60.9527 11.9967 61.0021 11.7478 61.0001 11.4967C60.9982 10.9903 60.7998 10.5048 60.4476 10.1441C60.2681 9.96694 60.0557 9.8272 59.8226 9.73288C59.5918 9.64169 59.346 9.59518 59.0981 9.59579H39.3806C38.9826 8.31161 38.1885 7.18928 37.114 6.39241C36.0395 5.59553 34.7409 5.16577 33.4074 5.16577C32.0739 5.16577 30.7753 5.59553 29.7008 6.39241C28.6264 7.18928 27.8322 8.31161 27.4342 9.59579H7.72583C7.47204 9.59525 7.22031 9.64172 6.98314 9.73288C6.75007 9.8272 6.53771 9.96694 6.3582 10.1441C6.1799 10.3249 6.03837 10.5391 5.94157 10.7747C5.84587 11.0093 5.7996 11.2614 5.80571 11.5149ZM16.4932 28.5863C16.4932 28.0864 16.6399 27.5977 16.9148 27.1818C17.1896 26.7659 17.5804 26.4415 18.0378 26.2493C18.4951 26.0572 18.9987 26.006 19.4848 26.1022C19.971 26.1984 20.418 26.4377 20.7696 26.7899C21.1212 27.1421 21.3616 27.5915 21.4604 28.0813C21.5592 28.5712 21.5121 29.0796 21.325 29.5424C21.1379 30.0053 20.8192 30.4019 20.409 30.6823C19.9988 30.9626 19.5155 31.1141 19.0201 31.1178C18.6878 31.1252 18.3574 31.0649 18.0487 30.9405C17.74 30.8162 17.4593 30.6303 17.2234 30.394C16.9875 30.1576 16.8013 29.8758 16.6758 29.5652C16.5503 29.2546 16.4882 28.9217 16.4932 28.5863ZM30.9031 11.4967C30.9031 10.996 31.0503 10.5066 31.3259 10.0903C31.6016 9.67397 31.9934 9.34951 32.4519 9.15791C32.9103 8.96631 33.4147 8.91617 33.9014 9.01384C34.3881 9.11152 34.8351 9.35263 35.186 9.70666C35.5368 10.0607 35.7758 10.5117 35.8726 11.0028C35.9694 11.4939 35.9197 12.0028 35.7298 12.4654C35.5399 12.928 35.2184 13.3233 34.8058 13.6015C34.3932 13.8797 33.9081 14.0281 33.4119 14.0281C33.0811 14.0331 32.7527 13.9709 32.4461 13.8455C32.1395 13.72 31.861 13.5337 31.6271 13.2977C31.3931 13.0616 31.2085 12.7806 31.0841 12.4712C30.9598 12.1619 30.8982 11.8305 30.9031 11.4967ZM42.8042 45.6759C42.8043 45.1741 42.9521 44.6836 43.229 44.2667C43.5059 43.8498 43.8993 43.5254 44.3594 43.3347C44.8194 43.1439 45.3252 43.0954 45.8126 43.1953C46.3 43.2952 46.7469 43.5391 47.0967 43.8958C47.4465 44.2526 47.6832 44.7062 47.777 45.1991C47.8707 45.6919 47.8171 46.2018 47.623 46.6638C47.429 47.1259 47.1032 47.5193 46.687 47.7941C46.2709 48.069 45.7832 48.2128 45.2859 48.2074C44.9577 48.2074 44.6328 48.1417 44.3299 48.0142C44.027 47.8866 43.7522 47.6997 43.5214 47.4643C43.2906 47.2289 43.1084 46.9496 42.9853 46.6426C42.8622 46.3356 42.8006 46.0071 42.8042 45.6759Z" fill="white"/>
</g>
<defs>
<clipPath id="clip0_1125:1387">
<rect width="61" height="52" fill="white"/>
</clipPath>
</defs>
</svg>
