<svg width="73" height="69" viewBox="0 0 73 69" fill="none" xmlns="http://www.w3.org/2000/svg">
<path d="M18.9 0H9.2C8.3 0 7.6 0.5 7.1 1.2L2.3 9.5C1.9 10.2 1.9 11.2 2.3 11.9L7.1 20.2C7.6 21 8.3 21.4 9.2 21.4H18.8C19.7 21.4 20.5 20.9 20.9 20.2L25.7 11.9C26.1 11.2 26.1 10.2 25.7 9.5L20.9 1.2C20.5 0.5 19.7 0 18.9 0Z" fill="#FF2129"/>
<path d="M70.3 33.5L67.4 31.8C66.9 31.5 66.2 31.3 65.5 31.3C64.8 31.3 64.1 31.5 63.6 31.8L60.7 33.5C60.4 33.6 60.2 33.8 60 34.1L53.7 29.2001C53.8 29 53.8 28.7001 53.8 28.5V12.6C53.8 11.4 52.9 9.90005 51.9 9.20005L38.5 1.30005C38 1.00005 37.3 0.800049 36.6 0.800049C35.9 0.800049 35.2 1.00005 34.7 1.30005L21.3 9.20005C20.2 9.80005 19.4 11.3 19.4 12.6V28.5C19.4 28.7001 19.4 29 19.5 29.2001L13.2 34.1C13 33.9 12.7 33.7001 12.5 33.5L9.6 31.8C9.1 31.5 8.4 31.3 7.7 31.3C7 31.3 6.3 31.5 5.8 31.8L2.9 33.5C1.8 34.1 1 35.6 1 36.8V40.2001C1 41.4001 1.9 42.9001 2.9 43.5L5.8 45.2001C6.3 45.5 7 45.7001 7.7 45.7001C8.4 45.7001 9.1 45.5 9.6 45.2001L12.5 43.5C13.6 42.9001 14.4 41.4001 14.4 40.2001V36.8C14.4 36.5 14.4 36.3 14.3 36L20.5 31.2001C20.7 31.5 21 31.7 21.3 31.8L34.7 39.7001C34.9 39.8 35.2 39.9001 35.5 40V51.3C35.2 51.4 34.9 51.5 34.7 51.6L30.7 53.9001C29.6 54.5 28.8 56 28.8 57.3V62.1C28.8 63.3 29.7 64.8 30.7 65.5L34.7 67.8C35.2 68.1001 35.9 68.3 36.6 68.3C37.3 68.3 38 68.1001 38.5 67.8L42.5 65.5C43.6 64.9 44.4 63.4 44.4 62.1V57.3C44.4 56.1 43.5 54.6001 42.5 53.9001L38.5 51.6C38.3 51.5 38 51.4 37.7 51.3V40.1C38 40 38.3 39.9 38.5 39.8L51.9 31.9C52.2 31.7 52.4 31.5 52.7 31.3L58.9 36.1C58.8 36.4 58.8 36.6001 58.8 36.9001V40.3C58.8 41.5 59.7 43 60.7 43.6L63.6 45.3C64.1 45.6 64.8 45.8 65.5 45.8C66.2 45.8 66.9 45.6 67.4 45.3L70.3 43.6C71.4 43 72.2 41.5 72.2 40.3V36.9001C72.2 35.6001 71.3 34.1 70.3 33.5ZM12.2 40.3C12.2 40.7001 11.8 41.5 11.4 41.7001L8.5 43.4001C8.4 43.5 8.1 43.6 7.7 43.6C7.3 43.6 7 43.5 6.9 43.4001L4 41.7001C3.6 41.5 3.2 40.7001 3.2 40.3V36.9001C3.2 36.5 3.6 35.7001 4 35.5L6.9 33.8C7 33.7001 7.3 33.6 7.7 33.6C8.1 33.6 8.4 33.7001 8.5 33.8L11.4 35.5C11.8 35.7001 12.2 36.5 12.2 36.9001V40.3ZM41.4 56C41.8 56.2001 42.2 57 42.2 57.4001V62.2001C42.2 62.6001 41.8 63.4 41.4 63.6L37.4 65.9C37.3 66 37 66.1 36.6 66.1C36.2 66.1 35.9 66 35.8 66L31.8 63.7001C31.4 63.5 31 62.7001 31 62.3V57.5C31 57.1 31.4 56.3 31.8 56.1L35.8 53.8C35.8 53.8 35.9 53.7001 36 53.7001H37.1C37.2 53.7001 37.3 53.8 37.3 53.8L41.4 56ZM51.6 28.5C51.6 28.9 51.2 29.7 50.8 29.9L46.5 32.5C46.2 30 45 27.8 43.2 26.3C42.7 26.9 42.1 27.4 41.5 27.8C43.2 29.2 44.4 31.3 44.4 33.8L37.4 37.9001C37.3 38 37 38.1 36.6 38.1C36.2 38.1 35.9 38 35.8 37.9001L28.8 33.8C28.8 31.3 29.9 29.1 31.7 27.8C31.1 27.4 30.5 26.9 30 26.3C28.2 27.8 27 30 26.7 32.5L22.4 30C22 29.8 21.6 29 21.6 28.6V12.6C21.6 12.2 22 11.4 22.4 11.2L35.8 3.30005C35.9 3.10005 36.2 3.00005 36.6 3.00005C37 3.00005 37.3 3.10005 37.4 3.20005L50.8 11.1C51.2 11.3 51.6 12.1 51.6 12.5V28.5ZM69.9 40.3C69.9 40.7001 69.5 41.5 69.1 41.7001L66.2 43.4001C66.1 43.5 65.8 43.6 65.4 43.6C65 43.6 64.7 43.5 64.6 43.4001L61.7 41.7001C61.3 41.5 60.9 40.7001 60.9 40.3V36.9001C60.9 36.5 61.3 35.7001 61.7 35.5L64.6 33.8C64.7 33.7001 65 33.6 65.4 33.6C65.8 33.6 66.1 33.7001 66.2 33.8L69.1 35.5C69.5 35.7001 69.9 36.5 69.9 36.9001V40.3Z" fill="white" stroke="white" stroke-width="1.1395" stroke-miterlimit="10"/>
<path d="M36.6 14.9C33.5 14.9 30.9 17.4 30.9 20.4C30.9 23.4 33.5 26 36.6 26C39.7 26 42.3 23.5 42.3 20.5C42.3 17.5 39.7 14.9 36.6 14.9ZM36.6 23.8C34.7 23.8 33.2 22.3 33.2 20.5C33.2 18.7 34.7 17.2 36.6 17.2C38.5 17.2 40 18.7 40 20.5C40.1 22.3 38.5 23.8 36.6 23.8Z" fill="white" stroke="white" stroke-width="1.1395" stroke-miterlimit="10"/>
</svg>
