<svg width="71" height="63" viewBox="0 0 71 63" fill="none" xmlns="http://www.w3.org/2000/svg">
<g clip-path="url(#clip0_1071:224)">
<path d="M16.9 9.4H7.2C6.3 9.4 5.6 9.9 5.1 10.6L0.3 18.9C-0.1 19.6 -0.1 20.6 0.3 21.3L5.1 29.6C5.6 30.4 6.3 30.8 7.2 30.8H16.8C17.7 30.8 18.5 30.3 18.9 29.6L23.7 21.3C24.1 20.6 24.1 19.6 23.7 18.9L18.9 10.6C18.5 9.8 17.7 9.4 16.9 9.4Z" fill="#FF2129"/>
<path d="M51.4 10.8C48.9 9.19999 45.5 9.89999 43.9 12.4C42.5 14.6 42.8 17.4 44.6 19.2L50.4 25C50.7 25.3 51 25.4 51.4 25.4C51.8 25.4 52.1 25.3 52.4 25L58.2 19.2C60.3 17.1 60.3 13.6 58.2 11.5C56.4 9.69999 53.6 9.39999 51.4 10.8ZM56.2 17.3L51.4 22.1L46.6 17.3C45.5 16.2 45.5 14.5 46.6 13.5C47.7 12.4 49.4 12.4 50.4 13.5C50.8 13.9 51.4 14 51.9 13.8C52.1 13.7 52.3 13.6 52.4 13.5C53.5 12.4 55.2 12.4 56.2 13.5C57.2 14.6 57.3 16.2 56.2 17.3Z" fill="white" stroke="white" stroke-width="0.5" stroke-miterlimit="10"/>
<path d="M61.7 0.199997H41.1C36.5 0.199997 32.8 3.9 32.8 8.5V18.7H20.3C15.7 18.7 12 22.4 12 27V44.2C12 48.6 15.4 52.2 19.7 52.5V60.3C19.7 61.1 20.3 61.7 21.1 61.7C21.4 61.7 21.7 61.6 21.9 61.4L33.2 52.5H41C45.6 52.5 49.3 48.8 49.3 44.2V34.4L60.1 43C60.7 43.5 61.6 43.4 62 42.8C62.2 42.6 62.3 42.3 62.3 42V34.2C66.6 33.9 70 30.3 70 25.9V8.6C70.1 4 66.3 0.299997 61.7 0.199997ZM67.2 7.3H64.5V3.7C65.8 4.5 66.8 5.8 67.2 7.3ZM20.3 21.5H32.7V25.8H14.9C15.5 23.3 17.7 21.5 20.3 21.5ZM46.6 44.3C46.6 47.4 44.1 49.9 41 49.9H32.8C32.5 49.9 32.2 50 32 50.2L22.5 57.6V51.2C22.5 50.4 21.9 49.8 21.1 49.8H20.3C17.2 49.8 14.7 47.3 14.7 44.2V28.6H33.2C34.4 31.9 37.5 34.2 41 34.2H46.5V44.3H46.6ZM61.7 31.4H61C60.2 31.4 59.6 32 59.6 32.8V39.2L50.1 31.8C49.9 31.6 49.6 31.5 49.3 31.5H41.1C38 31.5 35.5 29 35.5 25.9V8.6C35.5 5.5 38 3 41.1 3H61.7V8.7C61.7 9.5 62.3 10.1 63.1 10.1H67.3V25.9C67.3 28.9 64.8 31.4 61.7 31.4Z" fill="white" stroke="white" stroke-width="0.5" stroke-miterlimit="10"/>
<path d="M23.7999 35.6C23.5999 35.9 23.3999 36.2 23.3999 36.6C23.3999 37.4 23.9999 38 24.7999 38C25.1999 38 25.4999 37.9 25.7999 37.6C25.8999 37.5 25.9999 37.3 26.0999 37.1C26.1999 36.9 26.1999 36.8 26.1999 36.6C26.1999 35.8 25.5999 35.2 24.7999 35.2C24.4999 35.2 24.0999 35.3 23.7999 35.6Z" fill="white" stroke="white" stroke-width="0.5" stroke-miterlimit="10"/>
<path d="M31.4 35.4C31.3 35.3 31.3001 35.3 31.2001 35.3C31.1001 35.3 31 35.2 30.9 35.2C30.7 35.2 30.5 35.2 30.4 35.2C30.3 35.2 30.2 35.2 30.1 35.3C30 35.3 29.9 35.4 29.9 35.4C29.8 35.5 29.8001 35.5 29.7001 35.6C29.4001 35.9 29.3 36.2 29.3 36.6C29.3 37 29.4001 37.3 29.7001 37.6C29.8001 37.7 30 37.8 30.1 37.9C30.4 38 30.8001 38 31.2001 37.9C31.4001 37.8 31.5001 37.7 31.6 37.6C31.9 37.3 32 37 32 36.6C32 36.2 31.8001 35.9 31.6 35.6C31.6 35.5 31.5 35.5 31.4 35.4Z" fill="white" stroke="white" stroke-width="0.5" stroke-miterlimit="10"/>
<path d="M37.2 35.4C37.1 35.3 37 35.3 37 35.3C36.9 35.3 36.7999 35.2 36.7999 35.2C36.2999 35.1 35.8999 35.2 35.5999 35.6C35.4999 35.7 35.3999 35.9 35.2999 36.1C35.1999 36.3 35.2 36.4 35.2 36.6C35.2 37 35.2999 37.3 35.5999 37.6C36.0999 38.1 37 38.1 37.5 37.6C37.8 37.3 37.9 37 37.9 36.6C37.9 36.2 37.8 35.9 37.5 35.6C37.4 35.5 37.3 35.5 37.2 35.4Z" fill="white" stroke="white" stroke-width="0.5" stroke-miterlimit="10"/>
</g>
<defs>
<clipPath id="clip0_1071:224">
<rect width="70.3" height="62.1" fill="white"/>
</clipPath>
</defs>
</svg>
